<svg version="1.1" id="Layer_1" xmlns="http://www.w3.org/2000/svg" xmlns:xlink="http://www.w3.org/1999/xlink" x="0px" y="0px"
	 width="100%" viewBox="0 0 518 614" enable-background="new 0 0 518 614" xml:space="preserve">
<path fill="#FFFEFE" opacity="1.000000" stroke="none" 
	d="
M277.000000,615.000000 
	C184.666672,615.000000 92.833359,615.000000 1.000025,615.000000 
	C1.000016,410.333374 1.000016,205.666733 1.000008,1.000080 
	C173.666611,1.000053 346.333221,1.000053 518.999878,1.000026 
	C518.999878,205.666580 518.999878,410.333160 518.999939,614.999878 
	C438.500000,615.000000 358.000000,615.000000 277.000000,615.000000 
M247.828857,510.186432 
	C252.163300,491.867889 251.353226,473.448578 248.388962,455.101257 
	C243.557205,425.194946 234.782623,396.313080 222.345840,368.795349 
	C203.082504,326.173187 182.553802,284.124664 162.928879,241.663177 
	C156.516006,227.787979 151.071091,213.451797 145.574539,199.175873 
	C144.115280,195.385788 143.737427,191.055496 143.536697,186.940384 
	C143.345383,183.018524 144.464828,179.178497 148.523727,177.342453 
	C152.586395,175.504730 156.574081,176.423843 159.618851,179.362274 
	C162.571091,182.211426 165.637924,185.362793 167.350021,188.996078 
	C172.237457,199.367889 176.786087,209.928314 180.877884,220.639954 
	C189.073120,242.093689 196.503510,263.844910 204.963150,285.190552 
	C211.245621,301.042664 219.394043,315.974670 232.222382,327.763123 
	C247.033524,341.373627 266.128723,343.996552 279.930450,332.895294 
	C286.906158,327.284485 292.815979,319.849426 297.740295,312.284027 
	C310.743622,292.306458 318.029327,269.690186 325.940430,247.406891 
	C332.231720,229.686142 338.370117,211.903046 345.135895,194.363434 
	C347.307312,188.734192 350.839294,183.457336 354.608398,178.700317 
	C356.151001,176.753372 360.111938,175.548813 362.723145,175.894089 
	C366.758728,176.427704 367.203949,180.534454 366.890930,183.886505 
	C366.274048,190.492386 365.960327,197.269913 364.180481,203.599442 
	C355.847717,233.232727 347.267090,262.800537 338.385193,292.274261 
	C324.125641,339.593292 308.774231,386.600067 299.444244,435.265503 
	C294.682617,460.102325 292.302094,484.959412 295.973022,510.212616 
	C300.000031,537.915466 314.586182,556.871521 341.383667,565.477234 
	C371.423126,575.124023 402.161133,576.561035 433.194458,571.319092 
	C451.206512,568.276672 467.392334,560.955811 480.243866,547.820068 
	C496.268280,531.441223 503.987213,511.284760 503.125427,488.458710 
	C502.688843,476.895203 500.695618,465.303192 498.447052,453.913391 
	C493.604614,429.384552 483.519226,406.734650 472.642120,384.362366 
	C463.620667,365.806854 455.092743,347.044495 449.899109,326.890686 
	C442.998566,300.112946 444.134369,273.137604 446.276520,245.992111 
	C449.268738,208.074997 450.656860,170.122208 444.864807,132.320633 
	C441.852051,112.657959 436.656433,93.710426 426.671356,76.146904 
	C403.106781,34.697369 344.977539,30.602837 315.821259,62.490677 
	C301.430634,78.229561 292.028168,96.584984 285.084991,116.308311 
	C278.069458,136.237152 272.185425,156.562836 265.291260,176.537125 
	C263.952423,180.416183 260.247253,183.478531 257.633606,186.917618 
	C254.774353,183.854965 250.943085,181.254669 249.227478,177.648026 
	C242.511078,163.528214 236.379822,149.126358 230.185089,134.762909 
	C219.956100,111.045357 209.740082,87.336723 193.490799,66.875320 
	C180.033386,49.929516 164.095490,38.712563 140.858368,41.877357 
	C121.498543,44.514084 105.777328,52.956707 94.186913,68.650154 
	C82.667114,84.247978 76.785530,102.263718 72.977470,121.002083 
	C64.985764,160.326996 65.020576,200.169159 66.646164,239.963547 
	C68.324959,281.060120 67.428825,321.787811 58.025928,362.094391 
	C50.734585,393.349579 43.778553,424.705505 37.738541,456.220825 
	C34.621513,472.484741 32.488445,489.181305 32.339596,505.704254 
	C32.177166,523.734192 39.286793,539.689331 53.042152,552.234924 
	C65.466331,563.566467 80.443581,569.497498 96.589478,571.830566 
	C126.979065,576.221924 157.444748,575.185059 187.521271,569.068848 
	C219.634293,562.538574 240.059036,543.254517 247.828857,510.186432 
z"/>
<path fill="#EB5A29" opacity="1.000000" stroke="none" 
	d="
M247.718811,510.584900 
	C240.059036,543.254517 219.634293,562.538574 187.521271,569.068848 
	C157.444748,575.185059 126.979065,576.221924 96.589478,571.830566 
	C80.443581,569.497498 65.466331,563.566467 53.042152,552.234924 
	C39.286793,539.689331 32.177166,523.734192 32.339596,505.704254 
	C32.488445,489.181305 34.621513,472.484741 37.738541,456.220825 
	C43.778553,424.705505 50.734585,393.349579 58.025928,362.094391 
	C67.428825,321.787811 68.324959,281.060120 66.646164,239.963547 
	C65.020576,200.169159 64.985764,160.326996 72.977470,121.002083 
	C76.785530,102.263718 82.667114,84.247978 94.186913,68.650154 
	C105.777328,52.956707 121.498543,44.514084 140.858368,41.877357 
	C164.095490,38.712563 180.033386,49.929516 193.490799,66.875320 
	C209.740082,87.336723 219.956100,111.045357 230.185089,134.762909 
	C236.379822,149.126358 242.511078,163.528214 249.227478,177.648026 
	C250.943085,181.254669 254.774353,183.854965 257.633606,186.917603 
	C260.247253,183.478531 263.952423,180.416183 265.291260,176.537125 
	C272.185425,156.562836 278.069458,136.237152 285.084991,116.308311 
	C292.028168,96.584984 301.430634,78.229561 315.821259,62.490677 
	C344.977539,30.602837 403.106781,34.697369 426.671356,76.146904 
	C436.656433,93.710426 441.852051,112.657959 444.864807,132.320633 
	C450.656860,170.122208 449.268738,208.074997 446.276520,245.992111 
	C444.134369,273.137604 442.998566,300.112946 449.899109,326.890686 
	C455.092743,347.044495 463.620667,365.806854 472.642120,384.362366 
	C483.519226,406.734650 493.604614,429.384552 498.447052,453.913391 
	C500.695618,465.303192 502.688843,476.895203 503.125427,488.458710 
	C503.987213,511.284760 496.268280,531.441223 480.243866,547.820068 
	C467.392334,560.955811 451.206512,568.276672 433.194458,571.319092 
	C402.161133,576.561035 371.423126,575.124023 341.383667,565.477234 
	C314.586182,556.871521 300.000031,537.915466 295.973022,510.212616 
	C292.302094,484.959412 294.682617,460.102325 299.444244,435.265503 
	C308.774231,386.600067 324.125641,339.593292 338.385193,292.274261 
	C347.267090,262.800537 355.847717,233.232727 364.180481,203.599442 
	C365.960327,197.269913 366.274048,190.492386 366.890930,183.886505 
	C367.203949,180.534454 366.758728,176.427704 362.723145,175.894089 
	C360.111938,175.548813 356.151001,176.753372 354.608398,178.700317 
	C350.839294,183.457336 347.307312,188.734192 345.135895,194.363434 
	C338.370117,211.903046 332.231720,229.686142 325.940430,247.406891 
	C318.029327,269.690186 310.743622,292.306458 297.740295,312.284027 
	C292.815979,319.849426 286.906158,327.284485 279.930450,332.895294 
	C266.128723,343.996552 247.033524,341.373627 232.222382,327.763123 
	C219.394043,315.974670 211.245621,301.042664 204.963150,285.190552 
	C196.503510,263.844910 189.073120,242.093689 180.877884,220.639954 
	C176.786087,209.928314 172.237457,199.367889 167.350021,188.996078 
	C165.637924,185.362793 162.571091,182.211426 159.618851,179.362274 
	C156.574081,176.423843 152.586395,175.504730 148.523727,177.342453 
	C144.464828,179.178497 143.345383,183.018524 143.536697,186.940384 
	C143.737427,191.055496 144.115280,195.385788 145.574539,199.175873 
	C151.071091,213.451797 156.516006,227.787979 162.928879,241.663177 
	C182.553802,284.124664 203.082504,326.173187 222.345840,368.795349 
	C234.782623,396.313080 243.557205,425.194946 248.388962,455.101257 
	C251.353226,473.448578 252.163300,491.867889 247.718811,510.584900 
z"/>
</svg>