<svg version="1.1" id="Layer_1" xmlns="http://www.w3.org/2000/svg" xmlns:xlink="http://www.w3.org/1999/xlink" x="0px" y="0px"
	 width="100%" viewBox="0 0 746 350" enable-background="new 0 0 746 350" xml:space="preserve">
<path fill="#FBF7F3" opacity="1.000000" stroke="none" 
	d="
M577.000000,351.000000 
	C384.710388,351.000000 192.920776,351.000000 1.065586,351.000000 
	C1.065586,234.403687 1.065586,117.807312 1.065586,1.105474 
	C249.666641,1.105474 498.333313,1.105474 746.980469,1.105474 
	C746.980469,117.745941 746.980469,234.372971 746.980469,351.000000 
	C690.473938,351.000000 633.986938,351.000000 577.000000,351.000000 
M498.363190,256.144806 
	C517.651550,261.346222 528.397522,257.290924 541.821594,239.443817 
	C542.356995,258.220123 549.848083,273.386688 564.767395,284.014526 
	C573.517700,290.247864 583.218933,295.303284 592.915039,300.019836 
	C614.759583,310.645966 635.128052,306.940643 652.322876,289.749695 
	C665.120117,276.955414 674.097412,261.650024 680.983337,245.065933 
	C692.263977,217.897751 703.637085,190.763733 714.467712,163.415894 
	C717.241272,156.412491 718.921082,148.740601 719.666931,141.233139 
	C720.474182,133.107605 716.460632,126.758896 708.637024,123.421707 
	C700.973816,120.152954 693.677734,121.185471 687.825745,126.950256 
	C683.991211,130.727631 680.803650,135.371262 678.135010,140.084732 
	C668.799438,156.573868 660.177551,173.477158 650.504639,189.759811 
	C647.027161,195.613495 641.616028,200.457092 636.501587,205.119080 
	C634.877075,206.599869 630.638977,207.134674 628.908386,206.036224 
	C627.186096,204.943008 626.063232,201.046967 626.519287,198.744781 
	C627.672607,192.922684 629.232239,187.009308 631.753418,181.662720 
	C638.774292,166.773895 646.553101,152.243637 653.649536,137.388779 
	C656.930115,130.521606 660.061646,123.418404 661.937378,116.083778 
	C664.720764,105.199982 660.786499,96.873108 651.925415,91.805618 
	C643.267151,86.854111 632.561768,87.659637 625.318848,95.440247 
	C619.759033,101.412880 614.151550,108.290154 611.471191,115.802017 
	C605.390564,132.843018 595.371216,147.038239 583.916199,160.561996 
	C570.669006,176.201492 557.601562,191.974228 549.012573,210.855896 
	C548.804443,211.313400 548.117981,211.553314 547.222290,212.213211 
	C547.842896,205.218765 548.570801,198.829514 548.950806,192.419647 
	C550.636169,163.987152 552.050903,135.537476 553.926270,107.117958 
	C554.693054,95.498032 556.298401,83.929214 557.674744,72.355270 
	C558.572571,64.804520 557.632263,57.976513 550.944092,53.204166 
	C538.208069,44.116440 525.201050,49.782833 522.172607,65.640594 
	C520.456116,74.628738 518.824585,83.638885 516.824280,92.565079 
	C515.432922,98.774109 513.479492,104.857216 511.777130,110.996574 
	C511.251709,110.984222 510.726288,110.971870 510.200836,110.959518 
	C508.755554,108.214149 507.183990,105.527054 505.885498,102.713921 
	C497.707336,84.996460 489.092438,67.527039 476.310516,52.545788 
	C468.101501,42.924297 458.847076,34.648903 446.158081,31.371605 
	C438.595276,29.418280 432.890320,31.329653 429.157288,38.212234 
	C426.424377,43.250847 424.292847,48.834309 423.069336,54.431976 
	C419.375763,71.330383 416.804138,88.485153 412.787384,105.299255 
	C406.343201,132.274933 394.096008,157.155716 383.456665,182.599091 
	C383.389465,182.759857 382.887634,182.738876 382.821564,182.753006 
	C381.163452,177.867493 379.925720,172.838654 377.801422,168.217331 
	C371.104950,153.649399 357.942780,143.821045 340.916199,147.916885 
	C338.196411,148.571136 335.285828,148.726349 332.474945,148.655441 
	C321.949402,148.389893 314.665741,143.236862 312.321167,134.645569 
	C310.526764,128.070297 312.009399,125.339813 318.617584,123.610527 
	C321.504364,122.855080 324.519623,122.605316 327.439850,121.959808 
	C333.906158,120.530449 340.570831,119.599976 346.740234,117.336555 
	C353.062714,115.016968 356.019440,109.583450 356.024536,102.716255 
	C356.033020,91.268120 349.588135,83.051659 337.822449,81.229347 
	C330.144867,80.040222 322.231476,80.423569 314.434937,79.926476 
	C311.468536,79.737343 308.533508,79.055931 305.584198,78.598877 
	C305.589081,77.904190 305.593994,77.209511 305.598877,76.514832 
	C309.616211,76.006882 313.637085,75.525513 317.650085,74.985359 
	C325.545319,73.922653 333.594574,73.467621 341.284180,71.565109 
	C348.952271,69.667915 352.124878,63.778347 351.203857,55.882366 
	C350.091827,46.348537 343.837646,40.625771 335.732941,37.176834 
	C317.581451,29.452494 299.000610,30.263020 281.474487,38.382191 
	C266.387421,45.371429 257.472046,58.468376 253.056747,74.531509 
	C246.604767,98.004120 245.739899,121.866211 248.346252,145.892868 
	C250.931900,169.728500 256.489868,192.823349 268.211151,213.977127 
	C276.278198,228.536041 288.311981,238.536652 304.411102,243.516571 
	C313.126495,246.212494 321.584503,243.495377 330.147156,242.916458 
	C351.339600,241.483597 369.923065,235.529938 379.138123,213.905991 
	C381.440338,217.546982 383.194519,221.191071 385.726135,224.175751 
	C397.242432,237.753082 412.796844,241.847916 429.692017,241.375595 
	C448.261200,240.856445 457.952881,232.080933 461.422607,213.712540 
	C463.787628,201.192596 462.049988,188.781082 459.497833,176.520706 
	C455.249664,156.112839 451.419647,135.671417 451.684814,114.713806 
	C451.726532,111.416817 452.180237,108.084366 452.862610,104.856934 
	C453.122314,103.628502 454.381287,102.192024 455.534760,101.736519 
	C456.178070,101.482491 457.868134,102.836510 458.514832,103.835815 
	C460.225433,106.479126 461.920410,109.203621 463.102142,112.107216 
	C475.572876,142.748260 478.512482,174.175156 471.192047,206.583862 
	C469.748169,212.976288 468.785980,219.880341 469.590881,226.299011 
	C471.637390,242.619293 482.557037,251.430038 498.363190,256.144806 
M133.882248,206.627960 
	C119.999153,195.223022 106.050026,183.896759 92.288078,172.347458 
	C89.500710,170.008240 87.420441,166.826462 85.014191,164.033127 
	C85.458282,163.475800 85.902382,162.918488 86.346474,162.361160 
	C88.371819,163.422668 90.757210,164.101379 92.361588,165.610443 
	C100.242905,173.023514 107.547737,181.092484 115.782639,188.072769 
	C122.161713,193.479965 129.133408,198.702332 136.704697,202.061798 
	C146.729782,206.510040 156.159454,201.432510 158.704453,190.817001 
	C160.267899,184.295609 160.579529,177.287247 160.279205,170.549896 
	C159.835266,160.590652 158.234009,150.687912 157.360458,140.740479 
	C157.016266,136.820938 157.304031,132.845901 157.304031,128.896133 
	C157.832306,128.857178 158.360565,128.818207 158.888840,128.779251 
	C159.945526,133.593185 161.233994,138.369644 162.019470,143.227432 
	C165.763687,166.383698 169.047653,189.619461 173.143402,212.711990 
	C175.786270,227.613068 179.406128,242.373367 188.265579,255.145447 
	C195.186310,265.122620 204.529083,269.446869 216.699677,267.369293 
	C227.024521,265.606842 236.544235,261.777008 245.320419,256.202972 
	C265.778107,243.209534 270.255585,222.071548 255.683670,202.717209 
	C248.855865,193.648544 240.573990,185.370499 231.787613,178.149979 
	C217.669693,166.548096 206.805893,153.247330 200.602325,135.772430 
	C196.340317,123.766739 190.517868,112.242485 184.592377,100.922058 
	C179.555054,91.298439 172.862518,82.739273 163.428131,76.756248 
	C148.554031,67.323524 128.927628,73.122597 121.710228,89.171364 
	C117.460060,98.622131 117.439484,108.580856 118.586281,118.597130 
	C119.508545,126.652306 120.716713,134.674744 121.798019,142.711700 
	C118.205460,141.226242 115.539734,139.119400 112.995354,136.874985 
	C102.899261,127.969162 93.340424,118.359993 80.901588,112.549614 
	C69.982841,107.449287 60.948017,108.865105 52.513374,117.046486 
	C46.976711,122.416901 44.351448,129.122971 43.998692,136.711761 
	C43.222061,153.419235 49.102383,168.541107 56.323860,182.997238 
	C68.466827,207.305344 80.098625,231.640442 84.776909,258.788361 
	C86.688217,269.879578 89.782776,280.851868 93.303848,291.561035 
	C98.712524,308.011292 112.468361,315.480530 129.035461,311.348480 
	C142.623596,307.959412 154.764862,301.369598 165.513351,292.461456 
	C173.091476,286.180817 177.049057,277.879486 176.594604,267.878326 
	C176.175140,258.647339 172.647186,250.434036 167.690842,242.769180 
	C158.722473,228.899796 146.761673,217.812698 133.882248,206.627960 
z"/>
<path fill="#3C5DF5" opacity="1.000000" stroke="none" 
	d="
M497.965607,256.060822 
	C482.557037,251.430038 471.637390,242.619293 469.590881,226.299011 
	C468.785980,219.880341 469.748169,212.976288 471.192047,206.583862 
	C478.512482,174.175156 475.572876,142.748260 463.102142,112.107216 
	C461.920410,109.203621 460.225433,106.479126 458.514832,103.835815 
	C457.868134,102.836510 456.178070,101.482491 455.534760,101.736519 
	C454.381287,102.192024 453.122314,103.628502 452.862610,104.856934 
	C452.180237,108.084366 451.726532,111.416817 451.684814,114.713806 
	C451.419647,135.671417 455.249664,156.112839 459.497833,176.520706 
	C462.049988,188.781082 463.787628,201.192596 461.422607,213.712540 
	C457.952881,232.080933 448.261200,240.856445 429.692017,241.375595 
	C412.796844,241.847916 397.242432,237.753082 385.726135,224.175751 
	C383.194519,221.191071 381.440338,217.546982 379.138123,213.905991 
	C369.923065,235.529938 351.339600,241.483597 330.147156,242.916458 
	C321.584503,243.495377 313.126495,246.212494 304.411102,243.516571 
	C288.311981,238.536652 276.278198,228.536041 268.211151,213.977127 
	C256.489868,192.823349 250.931900,169.728500 248.346252,145.892868 
	C245.739899,121.866211 246.604767,98.004120 253.056747,74.531509 
	C257.472046,58.468376 266.387421,45.371429 281.474487,38.382191 
	C299.000610,30.263020 317.581451,29.452494 335.732941,37.176834 
	C343.837646,40.625771 350.091827,46.348537 351.203857,55.882366 
	C352.124878,63.778347 348.952271,69.667915 341.284180,71.565109 
	C333.594574,73.467621 325.545319,73.922653 317.650085,74.985359 
	C313.637085,75.525513 309.616211,76.006882 305.598877,76.514832 
	C305.593994,77.209511 305.589081,77.904190 305.584198,78.598877 
	C308.533508,79.055931 311.468536,79.737343 314.434937,79.926476 
	C322.231476,80.423569 330.144867,80.040222 337.822449,81.229347 
	C349.588135,83.051659 356.033020,91.268120 356.024536,102.716255 
	C356.019440,109.583450 353.062714,115.016968 346.740234,117.336555 
	C340.570831,119.599976 333.906158,120.530449 327.439850,121.959808 
	C324.519623,122.605316 321.504364,122.855080 318.617584,123.610527 
	C312.009399,125.339813 310.526764,128.070297 312.321167,134.645569 
	C314.665741,143.236862 321.949402,148.389893 332.474945,148.655441 
	C335.285828,148.726349 338.196411,148.571136 340.916199,147.916885 
	C357.942780,143.821045 371.104950,153.649399 377.801422,168.217331 
	C379.925720,172.838654 381.163452,177.867493 382.821564,182.753006 
	C382.887634,182.738876 383.389465,182.759857 383.456665,182.599091 
	C394.096008,157.155716 406.343201,132.274933 412.787384,105.299255 
	C416.804138,88.485153 419.375763,71.330383 423.069336,54.431976 
	C424.292847,48.834309 426.424377,43.250847 429.157288,38.212234 
	C432.890320,31.329653 438.595276,29.418280 446.158081,31.371605 
	C458.847076,34.648903 468.101501,42.924297 476.310516,52.545788 
	C489.092438,67.527039 497.707336,84.996460 505.885498,102.713921 
	C507.183990,105.527054 508.755554,108.214149 510.200836,110.959518 
	C510.726288,110.971870 511.251709,110.984222 511.777130,110.996574 
	C513.479492,104.857216 515.432922,98.774109 516.824280,92.565079 
	C518.824585,83.638885 520.456116,74.628738 522.172607,65.640594 
	C525.201050,49.782833 538.208069,44.116440 550.944092,53.204166 
	C557.632263,57.976513 558.572571,64.804520 557.674744,72.355270 
	C556.298401,83.929214 554.693054,95.498032 553.926270,107.117958 
	C552.050903,135.537476 550.636169,163.987152 548.950806,192.419647 
	C548.570801,198.829514 547.842896,205.218765 547.222290,212.213211 
	C548.117981,211.553314 548.804443,211.313400 549.012573,210.855896 
	C557.601562,191.974228 570.669006,176.201492 583.916199,160.561996 
	C595.371216,147.038239 605.390564,132.843018 611.471191,115.802017 
	C614.151550,108.290154 619.759033,101.412880 625.318848,95.440247 
	C632.561768,87.659637 643.267151,86.854111 651.925415,91.805618 
	C660.786499,96.873108 664.720764,105.199982 661.937378,116.083778 
	C660.061646,123.418404 656.930115,130.521606 653.649536,137.388779 
	C646.553101,152.243637 638.774292,166.773895 631.753418,181.662720 
	C629.232239,187.009308 627.672607,192.922684 626.519287,198.744781 
	C626.063232,201.046967 627.186096,204.943008 628.908386,206.036224 
	C630.638977,207.134674 634.877075,206.599869 636.501587,205.119080 
	C641.616028,200.457092 647.027161,195.613495 650.504639,189.759811 
	C660.177551,173.477158 668.799438,156.573868 678.135010,140.084732 
	C680.803650,135.371262 683.991211,130.727631 687.825745,126.950256 
	C693.677734,121.185471 700.973816,120.152954 708.637024,123.421707 
	C716.460632,126.758896 720.474182,133.107605 719.666931,141.233139 
	C718.921082,148.740601 717.241272,156.412491 714.467712,163.415894 
	C703.637085,190.763733 692.263977,217.897751 680.983337,245.065933 
	C674.097412,261.650024 665.120117,276.955414 652.322876,289.749695 
	C635.128052,306.940643 614.759583,310.645966 592.915039,300.019836 
	C583.218933,295.303284 573.517700,290.247864 564.767395,284.014526 
	C549.848083,273.386688 542.356995,258.220123 541.821594,239.443817 
	C528.397522,257.290924 517.651550,261.346222 497.965607,256.060822 
M455.096588,40.210480 
	C453.000885,39.198624 450.966919,38.023689 448.798828,37.203041 
	C439.260376,33.592590 434.423126,35.550495 430.894226,45.207737 
	C428.738983,51.105824 426.974274,57.277885 426.065247,63.478073 
	C421.357361,95.589485 413.056702,126.617874 399.988861,156.399200 
	C394.319153,169.320389 389.240784,182.536118 384.606140,195.865738 
	C380.635162,207.286484 384.120148,217.209412 393.160614,225.080566 
	C404.293335,234.773331 417.702972,237.434113 431.873260,236.416077 
	C445.900513,235.408279 453.165161,229.066864 455.984528,215.370529 
	C457.275940,209.097061 457.961853,202.378464 457.201416,196.069168 
	C455.570923,182.541336 452.257843,169.214096 450.679779,155.682709 
	C448.871735,140.179565 447.849091,124.558998 447.186951,108.959656 
	C446.885834,101.866112 450.270691,97.328300 454.550018,96.697701 
	C460.583099,95.808685 462.629883,100.742950 464.722900,104.687759 
	C473.110199,120.495964 476.913513,137.665085 478.994812,155.294174 
	C481.289825,174.733459 479.173309,193.766479 474.729065,212.767639 
	C470.723175,229.894623 478.590942,243.816452 494.669006,249.927704 
	C518.651672,259.043488 537.331116,249.309341 540.258301,224.947235 
	C542.222595,208.599121 543.738831,192.183182 544.931152,175.759521 
	C546.800293,150.012680 548.112122,124.225723 549.902649,98.472618 
	C550.525696,89.510925 551.883362,80.600929 552.877380,71.664185 
	C553.506714,66.006210 553.365967,60.553219 547.979736,56.912117 
	C538.261658,50.342690 529.595581,53.975086 527.143372,65.467445 
	C524.193176,79.293144 521.222412,93.117844 517.950073,106.869095 
	C517.066528,110.582123 516.347412,115.508362 511.461029,115.939926 
	C506.358032,116.390633 504.839050,111.460464 502.999908,107.909470 
	C499.023651,100.232246 495.742126,92.189430 491.650970,84.578613 
	C482.537537,67.624802 472.493103,51.342445 455.096588,40.210480 
M668.964355,168.528244 
	C665.230469,175.015091 661.738647,181.657166 657.702698,187.950302 
	C652.401123,196.216949 646.985107,204.508270 638.354187,209.853531 
	C634.437500,212.279221 630.269531,213.087357 626.114807,210.402115 
	C621.960327,207.717010 620.789368,203.470062 621.588806,199.016281 
	C622.523010,193.811554 623.621460,188.462402 625.776184,183.684372 
	C631.447205,171.108765 637.857361,158.868927 643.727234,146.379822 
	C648.385071,136.469345 653.311523,126.610970 656.943298,116.314850 
	C660.081299,107.418251 657.033691,100.497704 650.172485,96.352379 
	C642.957275,91.993172 634.973083,92.961922 628.125549,99.013947 
	C621.040710,105.275688 617.374939,113.562859 613.733459,122.055939 
	C610.281372,130.107285 606.465637,138.173859 601.568481,145.391541 
	C595.327454,154.589981 587.945557,163.029770 580.863770,171.638916 
	C569.303833,185.692093 558.383667,200.128098 551.553101,217.212479 
	C542.195740,240.616959 546.458557,262.909607 564.902222,277.921234 
	C573.684326,285.069183 584.165283,290.374115 594.412598,295.427063 
	C615.882568,306.013733 635.639771,301.458221 651.595520,283.653564 
	C663.211487,270.691498 671.473145,255.830582 678.029602,239.878036 
	C688.643005,214.054428 699.459534,188.311172 709.729553,162.351746 
	C712.379883,155.652603 713.815552,148.348450 714.875061,141.184067 
	C715.713806,135.511963 713.052734,130.812485 707.573181,128.192795 
	C701.929321,125.494560 696.297485,125.687698 691.741394,129.945587 
	C688.293640,133.167664 685.272034,137.107620 682.964478,141.233536 
	C678.097046,149.936676 673.822144,158.971222 668.964355,168.528244 
M328.582581,238.158859 
	C332.553436,237.721252 336.539764,237.391724 340.492279,236.825958 
	C352.665741,235.083420 363.434418,230.476898 370.289917,219.774796 
	C381.496643,202.279999 381.037262,184.129379 371.240356,166.322098 
	C364.519623,154.106140 355.269775,150.510742 341.459595,152.723557 
	C330.332367,154.506500 319.602325,153.835999 311.867981,144.116455 
	C301.845428,131.521423 306.092773,120.613762 321.832733,117.969528 
	C324.293365,117.556145 326.795929,117.376595 329.243378,116.903793 
	C333.805511,116.022484 338.424866,115.285767 342.864532,113.964882 
	C347.244446,112.661797 350.440399,109.813278 351.048370,104.893295 
	C352.228882,95.339981 347.407959,87.806969 337.937714,86.197922 
	C330.777161,84.981323 323.370056,85.244980 316.079254,84.752838 
	C312.604584,84.518280 308.887634,84.709625 305.767029,83.476562 
	C303.594788,82.618233 300.951385,79.686928 300.915619,77.639755 
	C300.882294,75.735634 303.708923,72.662712 305.827972,72.067398 
	C310.566467,70.736191 315.659607,70.705833 320.587616,70.001160 
	C327.149323,69.062859 333.814087,68.464401 340.203735,66.822021 
	C345.463867,65.469971 347.167328,61.816566 346.452728,56.409637 
	C345.440521,48.750835 340.163513,44.558994 333.820648,41.455944 
	C318.649994,34.034191 284.092346,34.663284 269.238800,53.661293 
	C263.344147,61.200710 259.078766,69.276588 257.011200,78.474373 
	C247.044159,122.813896 251.097198,165.894531 270.061676,207.194550 
	C281.526489,232.162064 301.658295,242.466583 328.582581,238.158859 
z"/>
<path fill="#3C5DF5" opacity="1.000000" stroke="none" 
	d="
M134.172867,206.833801 
	C146.761673,217.812698 158.722473,228.899796 167.690842,242.769180 
	C172.647186,250.434036 176.175140,258.647339 176.594604,267.878326 
	C177.049057,277.879486 173.091476,286.180817 165.513351,292.461456 
	C154.764862,301.369598 142.623596,307.959412 129.035461,311.348480 
	C112.468361,315.480530 98.712524,308.011292 93.303848,291.561035 
	C89.782776,280.851868 86.688217,269.879578 84.776909,258.788361 
	C80.098625,231.640442 68.466827,207.305344 56.323860,182.997238 
	C49.102383,168.541107 43.222061,153.419235 43.998692,136.711761 
	C44.351448,129.122971 46.976711,122.416901 52.513374,117.046486 
	C60.948017,108.865105 69.982841,107.449287 80.901588,112.549614 
	C93.340424,118.359993 102.899261,127.969162 112.995354,136.874985 
	C115.539734,139.119400 118.205460,141.226242 121.798019,142.711700 
	C120.716713,134.674744 119.508545,126.652306 118.586281,118.597130 
	C117.439484,108.580856 117.460060,98.622131 121.710228,89.171364 
	C128.927628,73.122597 148.554031,67.323524 163.428131,76.756248 
	C172.862518,82.739273 179.555054,91.298439 184.592377,100.922058 
	C190.517868,112.242485 196.340317,123.766739 200.602325,135.772430 
	C206.805893,153.247330 217.669693,166.548096 231.787613,178.149979 
	C240.573990,185.370499 248.855865,193.648544 255.683670,202.717209 
	C270.255585,222.071548 265.778107,243.209534 245.320419,256.202972 
	C236.544235,261.777008 227.024521,265.606842 216.699677,267.369293 
	C204.529083,269.446869 195.186310,265.122620 188.265579,255.145447 
	C179.406128,242.373367 175.786270,227.613068 173.143402,212.711990 
	C169.047653,189.619461 165.763687,166.383698 162.019470,143.227432 
	C161.233994,138.369644 159.945526,133.593185 158.888840,128.779251 
	C158.360565,128.818207 157.832306,128.857178 157.304031,128.896133 
	C157.304031,132.845901 157.016266,136.820938 157.360458,140.740479 
	C158.234009,150.687912 159.835266,160.590652 160.279205,170.549896 
	C160.579529,177.287247 160.267899,184.295609 158.704453,190.817001 
	C156.159454,201.432510 146.729782,206.510040 136.704697,202.061798 
	C129.133408,198.702332 122.161713,193.479965 115.782639,188.072769 
	C107.547737,181.092484 100.242905,173.023514 92.361588,165.610443 
	C90.757210,164.101379 88.371819,163.422668 86.346474,162.361160 
	C85.902382,162.918488 85.458282,163.475800 85.014191,164.033127 
	C87.420441,166.826462 89.500710,170.008240 92.288078,172.347458 
	C106.050026,183.896759 119.999153,195.223022 134.172867,206.833801 
M95.158798,282.124084 
	C96.093544,284.967072 96.905540,287.857574 97.983910,290.644989 
	C103.142899,303.980133 113.257996,310.042450 127.224030,306.786926 
	C141.161087,303.538208 153.741364,296.910431 164.244980,287.060242 
	C170.723282,280.985016 173.392883,273.004730 171.235641,264.267975 
	C169.819733,258.533539 168.158035,252.350723 164.763794,247.719025 
	C157.523895,237.839615 149.895874,227.963181 140.950317,219.680237 
	C127.052452,206.811798 111.843590,195.367416 97.359940,183.118958 
	C92.298332,178.838486 87.536606,174.151947 83.029381,169.288086 
	C80.598358,166.664719 79.129837,163.034821 82.135056,159.827438 
	C85.162491,156.596329 88.842758,157.439423 92.138786,159.618622 
	C94.621986,161.260406 97.039032,163.084808 99.182022,165.143799 
	C107.107597,172.758743 114.520988,180.962524 122.898293,188.030716 
	C127.963379,192.304306 134.126587,195.836182 140.385742,197.983292 
	C147.157196,200.306152 152.368805,196.970306 153.960083,189.915634 
	C155.331238,183.836853 155.853485,177.383560 155.555206,171.153091 
	C155.078369,161.192993 153.443237,151.293900 152.637177,141.341522 
	C152.264862,136.744522 152.294189,132.024063 152.959763,127.479424 
	C153.219727,125.704285 155.733429,122.974434 157.208191,122.982384 
	C159.115372,122.992668 161.907791,124.904610 162.722717,126.715958 
	C164.402344,130.449249 165.353577,134.604355 166.025894,138.681320 
	C170.113297,163.467224 173.777649,188.325684 178.121048,213.065475 
	C180.480179,226.502899 183.930984,239.722000 191.510712,251.451065 
	C197.251678,260.334778 205.179810,264.503571 215.681290,262.705566 
	C226.474548,260.857635 236.476929,256.756378 245.410217,250.387802 
	C260.524048,239.613113 263.356110,223.125565 253.351761,207.431198 
	C245.490860,195.099396 234.425537,186.082977 223.294144,177.052170 
	C211.804962,167.731094 203.402176,156.207977 198.091003,142.320709 
	C194.410217,132.696487 190.460571,123.147873 186.073807,113.827774 
	C180.451111,101.881897 173.971664,90.340111 163.034058,82.297760 
	C147.638382,70.977409 127.190163,78.574577 124.266357,97.395073 
	C122.763458,107.069244 124.095169,117.225105 124.548973,127.144852 
	C124.783592,132.273468 126.199982,137.346268 126.464516,142.476151 
	C126.568192,144.486710 125.508110,147.339096 123.992836,148.397186 
	C122.837440,149.203979 119.848137,148.253983 118.174881,147.251022 
	C115.495125,145.644775 113.272728,143.292038 110.781540,141.351730 
	C100.445145,133.301071 90.696373,124.269142 79.562141,117.530075 
	C67.106888,109.991432 52.943104,116.684250 50.042957,131.096329 
	C48.589321,138.320068 49.217697,146.404099 50.766533,153.703979 
	C54.670185,172.102417 64.340523,188.265381 72.252747,205.111252 
	C76.401573,213.944504 80.297470,223.040161 82.946129,232.402496 
	C87.515732,248.554901 91.023117,265.007843 95.158798,282.124084 
z"/>
<path fill="#FAF6F3" opacity="1.000000" stroke="none" 
	d="
M455.414642,40.402500 
	C472.493103,51.342445 482.537537,67.624802 491.650970,84.578613 
	C495.742126,92.189430 499.023651,100.232246 502.999908,107.909470 
	C504.839050,111.460464 506.358032,116.390633 511.461029,115.939926 
	C516.347412,115.508362 517.066528,110.582123 517.950073,106.869095 
	C521.222412,93.117844 524.193176,79.293144 527.143372,65.467445 
	C529.595581,53.975086 538.261658,50.342690 547.979736,56.912117 
	C553.365967,60.553219 553.506714,66.006210 552.877380,71.664185 
	C551.883362,80.600929 550.525696,89.510925 549.902649,98.472618 
	C548.112122,124.225723 546.800293,150.012680 544.931152,175.759521 
	C543.738831,192.183182 542.222595,208.599121 540.258301,224.947235 
	C537.331116,249.309341 518.651672,259.043488 494.669006,249.927704 
	C478.590942,243.816452 470.723175,229.894623 474.729065,212.767639 
	C479.173309,193.766479 481.289825,174.733459 478.994812,155.294174 
	C476.913513,137.665085 473.110199,120.495964 464.722900,104.687759 
	C462.629883,100.742950 460.583099,95.808685 454.550018,96.697701 
	C450.270691,97.328300 446.885834,101.866112 447.186951,108.959656 
	C447.849091,124.558998 448.871735,140.179565 450.679779,155.682709 
	C452.257843,169.214096 455.570923,182.541336 457.201416,196.069168 
	C457.961853,202.378464 457.275940,209.097061 455.984528,215.370529 
	C453.165161,229.066864 445.900513,235.408279 431.873260,236.416077 
	C417.702972,237.434113 404.293335,234.773331 393.160614,225.080566 
	C384.120148,217.209412 380.635162,207.286484 384.606140,195.865738 
	C389.240784,182.536118 394.319153,169.320389 399.988861,156.399200 
	C413.056702,126.617874 421.357361,95.589485 426.065247,63.478073 
	C426.974274,57.277885 428.738983,51.105824 430.894226,45.207737 
	C434.423126,35.550495 439.260376,33.592590 448.798828,37.203041 
	C450.966919,38.023689 453.000885,39.198624 455.414642,40.402500 
z"/>
<path fill="#FAF6F3" opacity="1.000000" stroke="none" 
	d="
M669.134277,168.199005 
	C673.822144,158.971222 678.097046,149.936676 682.964478,141.233536 
	C685.272034,137.107620 688.293640,133.167664 691.741394,129.945587 
	C696.297485,125.687698 701.929321,125.494560 707.573181,128.192795 
	C713.052734,130.812485 715.713806,135.511963 714.875061,141.184067 
	C713.815552,148.348450 712.379883,155.652603 709.729553,162.351746 
	C699.459534,188.311172 688.643005,214.054428 678.029602,239.878036 
	C671.473145,255.830582 663.211487,270.691498 651.595520,283.653564 
	C635.639771,301.458221 615.882568,306.013733 594.412598,295.427063 
	C584.165283,290.374115 573.684326,285.069183 564.902222,277.921234 
	C546.458557,262.909607 542.195740,240.616959 551.553101,217.212479 
	C558.383667,200.128098 569.303833,185.692093 580.863770,171.638916 
	C587.945557,163.029770 595.327454,154.589981 601.568481,145.391541 
	C606.465637,138.173859 610.281372,130.107285 613.733459,122.055939 
	C617.374939,113.562859 621.040710,105.275688 628.125549,99.013947 
	C634.973083,92.961922 642.957275,91.993172 650.172485,96.352379 
	C657.033691,100.497704 660.081299,107.418251 656.943298,116.314850 
	C653.311523,126.610970 648.385071,136.469345 643.727234,146.379822 
	C637.857361,158.868927 631.447205,171.108765 625.776184,183.684372 
	C623.621460,188.462402 622.523010,193.811554 621.588806,199.016281 
	C620.789368,203.470062 621.960327,207.717010 626.114807,210.402115 
	C630.269531,213.087357 634.437500,212.279221 638.354187,209.853531 
	C646.985107,204.508270 652.401123,196.216949 657.702698,187.950302 
	C661.738647,181.657166 665.230469,175.015091 669.134277,168.199005 
z"/>
<path fill="#FAF6F3" opacity="1.000000" stroke="none" 
	d="
M328.138458,238.214844 
	C301.658295,242.466583 281.526489,232.162064 270.061676,207.194550 
	C251.097198,165.894531 247.044159,122.813896 257.011200,78.474373 
	C259.078766,69.276588 263.344147,61.200710 269.238800,53.661293 
	C284.092346,34.663284 318.649994,34.034191 333.820648,41.455944 
	C340.163513,44.558994 345.440521,48.750835 346.452728,56.409637 
	C347.167328,61.816566 345.463867,65.469971 340.203735,66.822021 
	C333.814087,68.464401 327.149323,69.062859 320.587616,70.001160 
	C315.659607,70.705833 310.566467,70.736191 305.827972,72.067398 
	C303.708923,72.662712 300.882294,75.735634 300.915619,77.639755 
	C300.951385,79.686928 303.594788,82.618233 305.767029,83.476562 
	C308.887634,84.709625 312.604584,84.518280 316.079254,84.752838 
	C323.370056,85.244980 330.777161,84.981323 337.937714,86.197922 
	C347.407959,87.806969 352.228882,95.339981 351.048370,104.893295 
	C350.440399,109.813278 347.244446,112.661797 342.864532,113.964882 
	C338.424866,115.285767 333.805511,116.022484 329.243378,116.903793 
	C326.795929,117.376595 324.293365,117.556145 321.832733,117.969528 
	C306.092773,120.613762 301.845428,131.521423 311.867981,144.116455 
	C319.602325,153.835999 330.332367,154.506500 341.459595,152.723557 
	C355.269775,150.510742 364.519623,154.106140 371.240356,166.322098 
	C381.037262,184.129379 381.496643,202.279999 370.289917,219.774796 
	C363.434418,230.476898 352.665741,235.083420 340.492279,236.825958 
	C336.539764,237.391724 332.553436,237.721252 328.138458,238.214844 
z"/>
<path fill="#FAF6F3" opacity="1.000000" stroke="none" 
	d="
M95.067497,281.729370 
	C91.023117,265.007843 87.515732,248.554901 82.946129,232.402496 
	C80.297470,223.040161 76.401573,213.944504 72.252747,205.111252 
	C64.340523,188.265381 54.670185,172.102417 50.766533,153.703979 
	C49.217697,146.404099 48.589321,138.320068 50.042957,131.096329 
	C52.943104,116.684250 67.106888,109.991432 79.562141,117.530075 
	C90.696373,124.269142 100.445145,133.301071 110.781540,141.351730 
	C113.272728,143.292038 115.495125,145.644775 118.174881,147.251022 
	C119.848137,148.253983 122.837440,149.203979 123.992836,148.397186 
	C125.508110,147.339096 126.568192,144.486710 126.464516,142.476151 
	C126.199982,137.346268 124.783592,132.273468 124.548973,127.144852 
	C124.095169,117.225105 122.763458,107.069244 124.266357,97.395073 
	C127.190163,78.574577 147.638382,70.977409 163.034058,82.297760 
	C173.971664,90.340111 180.451111,101.881897 186.073807,113.827774 
	C190.460571,123.147873 194.410217,132.696487 198.091003,142.320709 
	C203.402176,156.207977 211.804962,167.731094 223.294144,177.052170 
	C234.425537,186.082977 245.490860,195.099396 253.351761,207.431198 
	C263.356110,223.125565 260.524048,239.613113 245.410217,250.387802 
	C236.476929,256.756378 226.474548,260.857635 215.681290,262.705566 
	C205.179810,264.503571 197.251678,260.334778 191.510712,251.451065 
	C183.930984,239.722000 180.480179,226.502899 178.121048,213.065475 
	C173.777649,188.325684 170.113297,163.467224 166.025894,138.681320 
	C165.353577,134.604355 164.402344,130.449249 162.722717,126.715958 
	C161.907791,124.904610 159.115372,122.992668 157.208191,122.982384 
	C155.733429,122.974434 153.219727,125.704285 152.959763,127.479424 
	C152.294189,132.024063 152.264862,136.744522 152.637177,141.341522 
	C153.443237,151.293900 155.078369,161.192993 155.555206,171.153091 
	C155.853485,177.383560 155.331238,183.836853 153.960083,189.915634 
	C152.368805,196.970306 147.157196,200.306152 140.385742,197.983292 
	C134.126587,195.836182 127.963379,192.304306 122.898293,188.030716 
	C114.520988,180.962524 107.107597,172.758743 99.182022,165.143799 
	C97.039032,163.084808 94.621986,161.260406 92.138786,159.618622 
	C88.842758,157.439423 85.162491,156.596329 82.135056,159.827438 
	C79.129837,163.034821 80.598358,166.664719 83.029381,169.288086 
	C87.536606,174.151947 92.298332,178.838486 97.359940,183.118958 
	C111.843590,195.367416 127.052452,206.811798 140.950317,219.680237 
	C149.895874,227.963181 157.523895,237.839615 164.763794,247.719025 
	C168.158035,252.350723 169.819733,258.533539 171.235641,264.267975 
	C173.392883,273.004730 170.723282,280.985016 164.244980,287.060242 
	C153.741364,296.910431 141.161087,303.538208 127.224030,306.786926 
	C113.257996,310.042450 103.142899,303.980133 97.983910,290.644989 
	C96.905540,287.857574 96.093544,284.967072 95.067497,281.729370 
z"/>
</svg>