<svg version="1.1" id="Layer_1" xmlns="http://www.w3.org/2000/svg" xmlns:xlink="http://www.w3.org/1999/xlink" x="0px" y="0px"
	 width="100%" viewBox="0 0 376 384" enable-background="new 0 0 376 384" xml:space="preserve">
<path fill="#FBF7F2" opacity="1.000000" stroke="none" 
	d="
M207.000000,385.000000 
	C138.000015,385.000000 69.500023,385.000000 1.000028,385.000000 
	C1.000018,257.000031 1.000018,129.000076 1.000009,1.000079 
	C126.333275,1.000053 251.666550,1.000053 376.999878,1.000026 
	C376.999908,128.999924 376.999908,256.999847 376.999939,384.999878 
	C320.500000,385.000000 264.000000,385.000000 207.000000,385.000000 
M124.562752,357.982056 
	C155.164703,369.621857 186.656540,372.380707 218.799942,366.739197 
	C315.408813,349.783203 380.136536,254.763885 360.763153,158.599640 
	C338.028839,45.752594 215.995697,-15.871309 112.138817,33.050091 
	C26.561338,73.361038 -12.312254,174.267639 24.591551,261.235870 
	C44.085548,307.175812 77.660812,339.040985 124.562752,357.982056 
z"/>
<path fill="#EA5C2A" opacity="1.000000" stroke="none" 
	d="
M124.185120,357.886963 
	C77.660812,339.040985 44.085548,307.175812 24.591551,261.235870 
	C-12.312254,174.267639 26.561338,73.361038 112.138817,33.050091 
	C215.995697,-15.871309 338.028839,45.752594 360.763153,158.599640 
	C380.136536,254.763885 315.408813,349.783203 218.799942,366.739197 
	C186.656540,372.380707 155.164703,369.621857 124.185120,357.886963 
M189.631943,202.350021 
	C191.472702,212.555222 204.376648,216.947922 214.035843,215.718979 
	C222.347397,214.661499 226.219208,208.662720 226.006363,197.899704 
	C225.970306,196.076569 225.742172,194.249908 225.495514,192.439484 
	C224.015732,181.578247 222.281677,170.744080 221.167389,159.846176 
	C220.902878,157.259308 222.679947,154.463699 223.517929,151.764099 
	C225.342072,153.877975 227.862198,155.703979 228.875290,158.153320 
	C234.633881,172.075806 235.753876,186.460648 232.289093,201.183746 
	C229.563766,212.764679 234.256927,220.576248 245.217087,222.930099 
	C256.024719,225.251190 262.722992,220.189941 264.851105,208.082443 
	C264.966125,207.428070 265.008148,206.758820 265.052704,206.094391 
	C266.021393,191.647263 266.906860,177.193970 267.980927,162.754715 
	C268.598053,154.458496 269.635010,146.193634 270.258575,137.897766 
	C270.608887,133.236496 268.208618,130.568405 263.823486,129.961639 
	C259.168060,129.317474 257.087250,131.965408 256.172638,135.972641 
	C255.618668,138.399887 255.445709,140.916260 254.856461,143.332840 
	C253.630264,148.361618 252.241135,153.350693 250.918976,158.356094 
	C250.366058,158.371567 249.813126,158.387039 249.260208,158.402512 
	C248.253647,156.803391 247.201706,155.230820 246.248367,153.600571 
	C242.063416,146.443985 238.386322,138.924591 233.556610,132.236084 
	C230.753052,128.353516 226.464355,125.169182 222.215271,122.796577 
	C216.538239,119.626640 213.080948,121.257896 211.174286,127.418488 
	C209.706970,132.159515 208.722244,137.096344 208.010910,142.016647 
	C205.344955,160.456833 197.210907,176.920181 190.031799,194.075607 
	C189.497284,193.409836 189.193893,193.204620 189.152771,192.956009 
	C186.689789,178.065826 182.968796,175.082809 167.712631,175.520004 
	C163.535507,175.639709 159.772018,174.451996 157.356537,170.680740 
	C154.467728,166.170471 155.891891,162.660538 161.166611,161.473358 
	C163.919418,160.853775 166.742737,160.550919 169.529938,160.079788 
	C173.289917,159.444244 176.355484,157.798141 176.514893,153.563477 
	C176.682663,149.106400 174.687073,145.648666 170.031097,144.831970 
	C166.297623,144.177078 162.432297,144.310822 158.644913,143.910706 
	C156.719040,143.707260 154.835999,143.098404 152.933594,142.672821 
	C152.942276,141.997559 152.950958,141.322281 152.959625,140.647018 
	C155.574234,140.171356 158.179199,139.631470 160.806015,139.237091 
	C163.753998,138.794495 166.818771,138.830841 169.659088,138.037247 
	C174.438980,136.701782 175.886322,132.358078 172.928802,128.367737 
	C171.685822,126.690697 169.921799,125.030899 168.029541,124.263580 
	C155.272263,119.090317 135.793777,121.876648 130.914093,140.903015 
	C126.263481,159.036179 127.509972,176.929581 133.737106,194.408951 
	C140.489410,213.362503 148.564087,218.200806 168.300797,216.088135 
	C169.128296,215.999573 169.969147,216.024765 170.793213,215.916565 
	C179.969559,214.711746 186.044235,209.455551 188.670227,200.986816 
	C189.049225,201.209457 189.428207,201.432114 189.631943,202.350021 
M80.507378,207.995071 
	C71.849174,200.719467 63.149536,193.492096 54.569431,186.125519 
	C52.949154,184.734406 51.804394,182.789413 50.440216,181.100006 
	C50.883160,180.528931 51.326107,179.957870 51.769051,179.386810 
	C53.840454,180.582397 56.166569,181.486649 57.932999,183.031052 
	C62.314220,186.861572 66.319260,191.123001 70.708923,194.942993 
	C73.823586,197.653442 78.151627,200.036880 81.555443,197.346725 
	C84.032631,195.388916 85.360855,190.918945 85.610115,187.454529 
	C85.963066,182.548965 84.753174,177.544861 84.401497,172.569427 
	C84.196960,169.675659 84.364288,166.755615 84.364288,163.847382 
	C84.987526,163.774979 85.610756,163.702576 86.233994,163.630157 
	C86.830368,165.217026 87.698387,166.757706 87.977417,168.398529 
	C89.399071,176.758469 90.194328,185.254837 92.114716,193.492249 
	C94.359612,203.121613 97.093201,212.696548 100.493149,221.973160 
	C102.315262,226.944717 107.431053,229.091202 112.554649,227.702957 
	C117.756760,226.293411 123.009796,224.209793 127.518394,221.301773 
	C134.543320,216.770721 135.966034,208.614639 131.270126,201.598755 
	C128.623474,197.644531 125.455742,193.744324 121.712364,190.878189 
	C112.974121,184.187668 106.388748,176.209671 103.123062,165.586182 
	C102.297935,162.901978 101.218437,160.191727 99.710564,157.843597 
	C96.673798,153.114594 93.839935,148.035477 89.881767,144.164963 
	C82.278687,136.730255 70.953690,140.518616 68.897362,150.916733 
	C68.234955,154.266327 68.478287,157.849014 68.685822,161.302322 
	C68.918587,165.175385 69.580276,169.022690 70.235184,174.341888 
	C67.612968,172.466827 66.174454,171.506851 64.810623,170.450470 
	C60.217392,166.892685 55.950169,162.802444 51.007751,159.831726 
	C42.352242,154.629181 33.226978,159.756058 34.171921,169.805527 
	C34.867786,177.206039 37.253830,184.816360 40.540512,191.522690 
	C46.215244,203.101746 51.073036,214.787186 53.298302,227.537704 
	C53.980255,231.445221 55.165352,235.306320 56.510937,239.048111 
	C59.430084,247.165680 65.349586,250.303497 73.463829,247.506226 
	C78.117973,245.901764 82.651276,243.534760 86.727707,240.759933 
	C93.380920,236.231125 95.242775,229.985031 91.523689,222.903671 
	C88.787643,217.694077 84.576805,213.259033 80.507378,207.995071 
M313.745056,171.271271 
	C315.429810,167.476913 317.473389,163.794418 318.700592,159.857422 
	C319.985321,155.735870 319.012909,151.870071 314.987640,149.422684 
	C311.067413,147.039169 307.078064,147.466736 303.961578,150.533417 
	C301.413147,153.041122 298.831268,156.063477 297.694061,159.352112 
	C294.498016,168.594650 288.154755,175.585648 282.514832,183.197235 
	C276.913727,190.756424 271.241028,198.513672 267.274231,206.969604 
	C262.252869,217.673462 266.302704,229.532211 275.960419,235.998352 
	C280.488464,239.030014 285.403046,241.662827 290.458130,243.688660 
	C298.917267,247.078659 307.224457,245.888031 313.462585,239.161453 
	C318.364563,233.875641 322.940491,227.864349 326.013428,221.392868 
	C332.559021,207.608261 338.066864,193.328873 343.908508,179.214386 
	C344.725067,177.241425 345.159668,175.078568 345.534851,172.961746 
	C346.200836,169.203857 345.269501,166.051056 341.680939,164.064194 
	C338.014221,162.034073 334.782257,163.159180 332.148865,165.795410 
	C330.428619,167.517487 329.221832,169.797119 327.971527,171.936035 
	C323.194672,180.107880 318.730469,188.475052 313.647064,196.448975 
	C311.619476,199.629471 308.553070,204.126541 304.111176,201.565689 
	C299.805420,199.083328 302.657501,194.519669 304.064911,191.218735 
	C306.863617,184.654724 310.225586,178.330856 313.745056,171.271271 
z"/>
<path fill="#FBF6F1" opacity="1.000000" stroke="none" 
	d="
M188.013763,201.037918 
	C186.044235,209.455551 179.969559,214.711746 170.793213,215.916565 
	C169.969147,216.024765 169.128296,215.999573 168.300797,216.088135 
	C148.564087,218.200806 140.489410,213.362503 133.737106,194.408951 
	C127.509972,176.929581 126.263481,159.036179 130.914093,140.903015 
	C135.793777,121.876648 155.272263,119.090317 168.029541,124.263580 
	C169.921799,125.030899 171.685822,126.690697 172.928802,128.367737 
	C175.886322,132.358078 174.438980,136.701782 169.659088,138.037247 
	C166.818771,138.830841 163.753998,138.794495 160.806015,139.237091 
	C158.179199,139.631470 155.574234,140.171356 152.959625,140.647018 
	C152.950958,141.322281 152.942276,141.997559 152.933594,142.672821 
	C154.835999,143.098404 156.719040,143.707260 158.644913,143.910706 
	C162.432297,144.310822 166.297623,144.177078 170.031097,144.831970 
	C174.687073,145.648666 176.682663,149.106400 176.514893,153.563477 
	C176.355484,157.798141 173.289917,159.444244 169.529938,160.079788 
	C166.742737,160.550919 163.919418,160.853775 161.166611,161.473358 
	C155.891891,162.660538 154.467728,166.170471 157.356537,170.680740 
	C159.772018,174.451996 163.535507,175.639709 167.712631,175.520004 
	C182.968796,175.082809 186.689789,178.065826 189.152771,192.956009 
	C189.193893,193.204620 189.497284,193.409836 190.031799,194.075607 
	C197.210907,176.920181 205.344955,160.456833 208.010910,142.016647 
	C208.722244,137.096344 209.706970,132.159515 211.174286,127.418488 
	C213.080948,121.257896 216.538239,119.626640 222.215271,122.796577 
	C226.464355,125.169182 230.753052,128.353516 233.556610,132.236084 
	C238.386322,138.924591 242.063416,146.443985 246.248367,153.600571 
	C247.201706,155.230820 248.253647,156.803391 249.260208,158.402512 
	C249.813126,158.387039 250.366058,158.371567 250.918976,158.356094 
	C252.241135,153.350693 253.630264,148.361618 254.856461,143.332840 
	C255.445709,140.916260 255.618668,138.399887 256.172638,135.972641 
	C257.087250,131.965408 259.168060,129.317474 263.823486,129.961639 
	C268.208618,130.568405 270.608887,133.236496 270.258575,137.897766 
	C269.635010,146.193634 268.598053,154.458496 267.980927,162.754715 
	C266.906860,177.193970 266.021393,191.647263 265.052704,206.094391 
	C265.008148,206.758820 264.966125,207.428070 264.851105,208.082443 
	C262.722992,220.189941 256.024719,225.251190 245.217087,222.930099 
	C234.256927,220.576248 229.563766,212.764679 232.289093,201.183746 
	C235.753876,186.460648 234.633881,172.075806 228.875290,158.153320 
	C227.862198,155.703979 225.342072,153.877975 223.517929,151.764099 
	C222.679947,154.463699 220.902878,157.259308 221.167389,159.846176 
	C222.281677,170.744080 224.015732,181.578247 225.495514,192.439484 
	C225.742172,194.249908 225.970306,196.076569 226.006363,197.899704 
	C226.219208,208.662720 222.347397,214.661499 214.035843,215.718979 
	C204.376648,216.947922 191.472702,212.555222 189.766663,201.608429 
	C189.704422,200.053848 189.507431,199.240891 189.310440,198.427917 
	C189.065811,198.437943 188.821182,198.447968 188.576553,198.457993 
	C188.388947,199.317978 188.201355,200.177948 188.013763,201.037918 
z"/>
<path fill="#FBF5F1" opacity="1.000000" stroke="none" 
	d="
M80.765274,208.236954 
	C84.576805,213.259033 88.787643,217.694077 91.523689,222.903671 
	C95.242775,229.985031 93.380920,236.231125 86.727707,240.759933 
	C82.651276,243.534760 78.117973,245.901764 73.463829,247.506226 
	C65.349586,250.303497 59.430084,247.165680 56.510937,239.048111 
	C55.165352,235.306320 53.980255,231.445221 53.298302,227.537704 
	C51.073036,214.787186 46.215244,203.101746 40.540512,191.522690 
	C37.253830,184.816360 34.867786,177.206039 34.171921,169.805527 
	C33.226978,159.756058 42.352242,154.629181 51.007751,159.831726 
	C55.950169,162.802444 60.217392,166.892685 64.810623,170.450470 
	C66.174454,171.506851 67.612968,172.466827 70.235184,174.341888 
	C69.580276,169.022690 68.918587,165.175385 68.685822,161.302322 
	C68.478287,157.849014 68.234955,154.266327 68.897362,150.916733 
	C70.953690,140.518616 82.278687,136.730255 89.881767,144.164963 
	C93.839935,148.035477 96.673798,153.114594 99.710564,157.843597 
	C101.218437,160.191727 102.297935,162.901978 103.123062,165.586182 
	C106.388748,176.209671 112.974121,184.187668 121.712364,190.878189 
	C125.455742,193.744324 128.623474,197.644531 131.270126,201.598755 
	C135.966034,208.614639 134.543320,216.770721 127.518394,221.301773 
	C123.009796,224.209793 117.756760,226.293411 112.554649,227.702957 
	C107.431053,229.091202 102.315262,226.944717 100.493149,221.973160 
	C97.093201,212.696548 94.359612,203.121613 92.114716,193.492249 
	C90.194328,185.254837 89.399071,176.758469 87.977417,168.398529 
	C87.698387,166.757706 86.830368,165.217026 86.233994,163.630157 
	C85.610756,163.702576 84.987526,163.774979 84.364288,163.847382 
	C84.364288,166.755615 84.196960,169.675659 84.401497,172.569427 
	C84.753174,177.544861 85.963066,182.548965 85.610115,187.454529 
	C85.360855,190.918945 84.032631,195.388916 81.555443,197.346725 
	C78.151627,200.036880 73.823586,197.653442 70.708923,194.942993 
	C66.319260,191.123001 62.314220,186.861572 57.932999,183.031052 
	C56.166569,181.486649 53.840454,180.582397 51.769051,179.386810 
	C51.326107,179.957870 50.883160,180.528931 50.440216,181.100006 
	C51.804394,182.789413 52.949154,184.734406 54.569431,186.125519 
	C63.149536,193.492096 71.849174,200.719467 80.765274,208.236954 
z"/>
<path fill="#FBF6F1" opacity="1.000000" stroke="none" 
	d="
M313.549927,171.589508 
	C310.225586,178.330856 306.863617,184.654724 304.064911,191.218735 
	C302.657501,194.519669 299.805420,199.083328 304.111176,201.565689 
	C308.553070,204.126541 311.619476,199.629471 313.647064,196.448975 
	C318.730469,188.475052 323.194672,180.107880 327.971527,171.936035 
	C329.221832,169.797119 330.428619,167.517487 332.148865,165.795410 
	C334.782257,163.159180 338.014221,162.034073 341.680939,164.064194 
	C345.269501,166.051056 346.200836,169.203857 345.534851,172.961746 
	C345.159668,175.078568 344.725067,177.241425 343.908508,179.214386 
	C338.066864,193.328873 332.559021,207.608261 326.013428,221.392868 
	C322.940491,227.864349 318.364563,233.875641 313.462585,239.161453 
	C307.224457,245.888031 298.917267,247.078659 290.458130,243.688660 
	C285.403046,241.662827 280.488464,239.030014 275.960419,235.998352 
	C266.302704,229.532211 262.252869,217.673462 267.274231,206.969604 
	C271.241028,198.513672 276.913727,190.756424 282.514832,183.197235 
	C288.154755,175.585648 294.498016,168.594650 297.694061,159.352112 
	C298.831268,156.063477 301.413147,153.041122 303.961578,150.533417 
	C307.078064,147.466736 311.067413,147.039169 314.987640,149.422684 
	C319.012909,151.870071 319.985321,155.735870 318.700592,159.857422 
	C317.473389,163.794418 315.429810,167.476913 313.549927,171.589508 
z"/>
<path fill="#FBF5F1" opacity="1.000000" stroke="none" 
	d="
M188.341995,201.012360 
	C188.201355,200.177948 188.388947,199.317978 188.576553,198.457993 
	C188.821182,198.447968 189.065811,198.437943 189.310440,198.427917 
	C189.507431,199.240891 189.704422,200.053848 189.854309,201.260788 
	C189.428207,201.432114 189.049225,201.209457 188.341995,201.012360 
z"/>
</svg>