<svg version="1.1" id="Layer_1" xmlns="http://www.w3.org/2000/svg" xmlns:xlink="http://www.w3.org/1999/xlink" x="0px" y="0px"
	 width="100%" viewBox="0 0 418 174" enable-background="new 0 0 418 174" xml:space="preserve">
<path fill="#1A1A6D" opacity="1.000000" stroke="none" 
	d="
M284.000000,175.000000 
	C189.373093,175.000000 95.246201,175.000000 1.059650,175.000000 
	C1.059650,117.064316 1.059650,59.128548 1.059650,1.096390 
	C140.210175,1.096390 279.420441,1.096390 418.815369,1.096390 
	C418.815369,58.999523 418.815369,116.999710 418.815369,175.000000 
	C374.128662,175.000000 329.314331,175.000000 284.000000,175.000000 
M288.623291,129.957214 
	C296.231964,130.299149 302.063660,127.097252 306.687408,120.005432 
	C307.375458,130.229111 311.242737,138.104340 318.929443,143.169983 
	C325.396484,147.431885 332.424805,151.179916 339.691376,153.811264 
	C350.476501,157.716721 360.658508,155.136932 368.521942,146.802155 
	C373.599884,141.419846 378.575348,135.451721 381.748169,128.856781 
	C389.874725,111.965019 397.024689,94.600471 404.416779,77.361359 
	C405.579681,74.649284 406.299316,71.643303 406.636475,68.705803 
	C407.118774,64.503998 405.926971,60.761963 401.914764,58.503071 
	C397.781128,56.175838 393.508881,55.975807 389.732452,58.888733 
	C387.434845,60.661007 385.440918,63.069866 383.930084,65.567520 
	C381.009735,70.395470 378.871826,75.714546 375.782623,80.418282 
	C371.245087,87.327179 366.318451,94.003281 361.161224,100.462059 
	C360.195740,101.671150 357.369354,101.394363 355.401764,101.803284 
	C355.152588,99.956200 354.182770,97.825134 354.779327,96.311310 
	C357.328583,89.842194 360.230865,83.503448 363.211700,77.215424 
	C366.693848,69.869873 370.810547,62.796505 373.858551,55.283184 
	C376.145996,49.644630 374.324951,44.861462 370.267151,41.884441 
	C365.511078,38.395134 359.474854,37.794353 355.051605,41.834534 
	C351.126404,45.419788 348.203796,50.200829 345.240845,54.717850 
	C341.081146,61.059269 337.663879,67.909721 333.260162,74.063789 
	C326.693604,83.240334 319.553284,92.006889 312.618561,100.917931 
	C312.190796,101.467613 311.427338,101.756058 310.040771,102.692154 
	C310.428680,98.612366 310.781952,95.424965 311.027435,92.229286 
	C312.582581,71.985992 313.965881,51.727951 315.730408,31.503098 
	C316.377106,24.090763 313.771027,19.434446 307.096832,18.158499 
	C300.990845,16.991179 297.459473,19.970636 295.732971,27.640299 
	C293.989136,35.386982 292.180725,43.119122 290.400604,50.857632 
	C288.055420,48.957939 286.903351,47.007145 285.899719,44.982761 
	C280.187775,33.461407 274.385925,21.855331 263.826996,13.960873 
	C249.669556,3.375956 242.401718,7.309145 240.012527,22.190916 
	C236.448410,44.390991 229.638458,65.431442 219.768936,85.555519 
	C219.192673,86.730499 218.605087,87.899910 217.650726,89.820717 
	C213.614883,74.500923 207.179581,69.896805 192.688385,70.993088 
	C190.868988,71.130737 188.706207,71.619591 187.265915,70.867218 
	C184.200470,69.265930 180.838959,67.458244 178.835464,64.802284 
	C176.574509,61.805008 177.631485,58.708984 182.004868,57.965366 
	C185.938629,57.296494 189.908295,56.806190 193.809723,55.987442 
	C199.664291,54.758816 202.665558,51.556660 202.744034,46.830635 
	C202.833527,41.440536 199.926178,37.054749 194.497894,35.757599 
	C190.503586,34.803116 186.274048,34.819138 182.145416,34.446056 
	C179.872009,34.240620 177.590515,34.124752 175.312668,33.968502 
	C175.324265,33.549644 175.335861,33.130783 175.347458,32.711922 
	C177.581558,32.474987 179.816940,32.249504 182.049469,31.998507 
	C185.684830,31.589787 189.405090,31.523769 192.934540,30.671370 
	C200.329315,28.885458 202.474030,22.591049 197.840591,16.545904 
	C196.561081,14.876557 194.828049,13.282826 192.953232,12.385042 
	C178.651184,5.536320 151.992889,7.127903 145.166351,31.041958 
	C138.885391,53.044842 140.714844,74.869476 148.670624,96.173607 
	C150.396667,100.795631 152.583542,105.475487 155.567108,109.352219 
	C162.742706,118.675957 171.752289,124.018799 184.410767,122.305687 
	C196.732605,120.638138 209.110138,119.994888 215.601349,106.467972 
	C222.435257,118.369835 233.070786,121.415962 245.219513,120.944176 
	C253.829285,120.609833 259.624146,116.268394 261.140137,107.865219 
	C262.180023,102.101456 262.003265,95.946014 261.337250,90.083000 
	C260.006989,78.372780 257.810425,66.762993 256.330261,55.066345 
	C255.962830,52.163036 256.965454,49.086349 257.338348,46.089355 
	C257.997253,45.972839 258.656189,45.856323 259.315125,45.739807 
	C261.158081,49.504913 263.409698,53.128426 264.771942,57.060081 
	C270.138275,72.548203 270.733887,88.260971 266.754608,104.235283 
	C263.916748,115.627640 268.922455,124.322975 280.011749,128.063446 
	C282.513275,128.907227 285.166992,129.299942 288.623291,129.957214 
M86.781685,109.713753 
	C82.964439,106.345421 79.147202,102.977081 74.483482,98.861816 
	C76.312767,99.109528 76.955917,99.105911 77.540405,99.289284 
	C87.456375,102.400314 92.914307,98.860023 92.953316,88.593048 
	C92.977104,82.331665 91.842186,76.069450 91.315552,69.800232 
	C91.156242,67.903755 91.290886,65.982567 91.290886,64.072701 
	C91.799759,64.047218 92.308624,64.021729 92.817497,63.996243 
	C93.208801,65.695160 93.695778,67.378479 93.975723,69.095543 
	C95.662224,79.439705 96.873741,89.884232 99.089684,100.111992 
	C100.906479,108.497520 103.313248,116.867058 106.545212,124.801010 
	C109.462952,131.963623 115.534325,136.694550 123.606537,134.769760 
	C130.559235,133.111938 137.711136,130.499512 143.590622,126.547272 
	C152.562149,120.516533 153.694397,110.452301 147.392120,101.564857 
	C144.439392,97.400948 141.121170,93.097610 137.011383,90.228653 
	C125.362968,82.097160 117.756714,71.470016 112.893112,58.164505 
	C109.422607,48.670139 104.506088,39.590931 95.786354,33.510311 
	C85.505569,26.341089 72.183754,31.610363 69.919304,43.896488 
	C69.209053,47.750080 69.418320,51.828598 69.631004,55.781330 
	C69.845612,59.769810 70.586922,63.729950 71.243408,68.837929 
	C68.985909,66.984543 67.766327,65.910324 66.472832,64.934036 
	C61.041088,60.834316 55.879169,56.275341 50.069241,52.803635 
	C42.421734,48.233891 34.496990,49.901062 30.459164,56.907516 
	C28.590324,60.150330 27.309553,64.698502 27.978836,68.235405 
	C29.351267,75.488197 31.501560,82.793938 34.627560,89.471169 
	C40.326912,101.645187 47.138226,113.271416 49.763069,126.723877 
	C51.064377,133.393158 52.853016,140.003448 54.930534,146.476959 
	C58.250938,156.823288 65.872513,161.181549 76.294601,157.986664 
	C82.554565,156.067657 88.659279,153.034317 94.193153,149.499023 
	C102.230652,144.364304 104.641594,136.259384 100.164299,127.762566 
	C96.819206,121.414398 91.644669,116.030220 86.781685,109.713753 
z"/>
<path fill="#EAE6E8" opacity="1.000000" stroke="none" 
	d="
M288.186951,129.928772 
	C285.166992,129.299942 282.513275,128.907227 280.011749,128.063446 
	C268.922455,124.322975 263.916748,115.627640 266.754608,104.235283 
	C270.733887,88.260971 270.138275,72.548203 264.771942,57.060081 
	C263.409698,53.128426 261.158081,49.504913 259.315125,45.739807 
	C258.656189,45.856323 257.997253,45.972839 257.338348,46.089355 
	C256.965454,49.086349 255.962830,52.163036 256.330261,55.066345 
	C257.810425,66.762993 260.006989,78.372780 261.337250,90.083000 
	C262.003265,95.946014 262.180023,102.101456 261.140137,107.865219 
	C259.624146,116.268394 253.829285,120.609833 245.219513,120.944176 
	C233.070786,121.415962 222.435257,118.369835 215.601349,106.467972 
	C209.110138,119.994888 196.732605,120.638138 184.410767,122.305687 
	C171.752289,124.018799 162.742706,118.675957 155.567108,109.352219 
	C152.583542,105.475487 150.396667,100.795631 148.670624,96.173607 
	C140.714844,74.869476 138.885391,53.044842 145.166351,31.041958 
	C151.992889,7.127903 178.651184,5.536320 192.953232,12.385042 
	C194.828049,13.282826 196.561081,14.876557 197.840591,16.545904 
	C202.474030,22.591049 200.329315,28.885458 192.934540,30.671370 
	C189.405090,31.523769 185.684830,31.589787 182.049469,31.998507 
	C179.816940,32.249504 177.581558,32.474987 175.347458,32.711922 
	C175.335861,33.130783 175.324265,33.549644 175.312668,33.968502 
	C177.590515,34.124752 179.872009,34.240620 182.145416,34.446056 
	C186.274048,34.819138 190.503586,34.803116 194.497894,35.757599 
	C199.926178,37.054749 202.833527,41.440536 202.744034,46.830635 
	C202.665558,51.556660 199.664291,54.758816 193.809723,55.987442 
	C189.908295,56.806190 185.938629,57.296494 182.004868,57.965366 
	C177.631485,58.708984 176.574509,61.805008 178.835464,64.802284 
	C180.838959,67.458244 184.200470,69.265930 187.265915,70.867218 
	C188.706207,71.619591 190.868988,71.130737 192.688385,70.993088 
	C207.179581,69.896805 213.614883,74.500923 217.650726,89.820717 
	C218.605087,87.899910 219.192673,86.730499 219.768936,85.555519 
	C229.638458,65.431442 236.448410,44.390991 240.012527,22.190916 
	C242.401718,7.309145 249.669556,3.375956 263.826996,13.960873 
	C274.385925,21.855331 280.187775,33.461407 285.899719,44.982761 
	C286.903351,47.007145 288.055420,48.957939 290.400604,50.857632 
	C292.180725,43.119122 293.989136,35.386982 295.732971,27.640299 
	C297.459473,19.970636 300.990845,16.991179 307.096832,18.158499 
	C313.771027,19.434446 316.377106,24.090763 315.730408,31.503098 
	C313.965881,51.727951 312.582581,71.985992 311.027435,92.229286 
	C310.781952,95.424965 310.428680,98.612366 310.040771,102.692154 
	C311.427338,101.756058 312.190796,101.467613 312.618561,100.917931 
	C319.553284,92.006889 326.693604,83.240334 333.260162,74.063789 
	C337.663879,67.909721 341.081146,61.059269 345.240845,54.717850 
	C348.203796,50.200829 351.126404,45.419788 355.051605,41.834534 
	C359.474854,37.794353 365.511078,38.395134 370.267151,41.884441 
	C374.324951,44.861462 376.145996,49.644630 373.858551,55.283184 
	C370.810547,62.796505 366.693848,69.869873 363.211700,77.215424 
	C360.230865,83.503448 357.328583,89.842194 354.779327,96.311310 
	C354.182770,97.825134 355.152588,99.956200 355.401764,101.803284 
	C357.369354,101.394363 360.195740,101.671150 361.161224,100.462059 
	C366.318451,94.003281 371.245087,87.327179 375.782623,80.418282 
	C378.871826,75.714546 381.009735,70.395470 383.930084,65.567520 
	C385.440918,63.069866 387.434845,60.661007 389.732452,58.888733 
	C393.508881,55.975807 397.781128,56.175838 401.914764,58.503071 
	C405.926971,60.761963 407.118774,64.503998 406.636475,68.705803 
	C406.299316,71.643303 405.579681,74.649284 404.416779,77.361359 
	C397.024689,94.600471 389.874725,111.965019 381.748169,128.856781 
	C378.575348,135.451721 373.599884,141.419846 368.521942,146.802155 
	C360.658508,155.136932 350.476501,157.716721 339.691376,153.811264 
	C332.424805,151.179916 325.396484,147.431885 318.929443,143.169983 
	C311.242737,138.104340 307.375458,130.229111 306.687408,120.005432 
	C302.063660,127.097252 296.231964,130.299149 288.186951,129.928772 
M254.076797,65.298386 
	C253.870560,61.142361 253.389099,56.976170 253.542160,52.833424 
	C253.672699,49.300529 253.237900,44.629505 257.731537,43.639137 
	C262.429504,42.603725 263.576752,47.302963 264.985474,50.445877 
	C272.668335,67.586800 274.200104,85.340889 269.689850,103.594330 
	C268.089020,110.073105 268.142059,116.366875 273.527222,121.114006 
	C279.626953,126.491035 286.972931,128.457291 294.896881,126.337578 
	C302.595062,124.278259 305.166748,118.039955 306.161011,110.857559 
	C306.411621,109.047440 306.897980,107.259064 307.018616,105.443581 
	C307.978790,90.996902 308.741150,76.535759 309.840485,62.100086 
	C310.610840,51.984402 311.771362,41.897121 312.840820,31.805967 
	C313.575958,24.869814 311.783264,21.728241 306.454590,20.999561 
	C301.380981,20.305756 299.555939,22.097427 298.177734,29.132277 
	C298.113770,29.458559 298.117065,29.799593 298.037567,30.121017 
	C296.363983,36.886543 294.798462,43.682789 292.907837,50.387299 
	C292.522064,51.755329 291.017212,53.570522 289.831726,53.731384 
	C288.692902,53.885914 286.919373,52.418983 286.098724,51.207867 
	C284.526398,48.887470 283.424255,46.247227 282.140289,43.732906 
	C276.594269,32.872253 270.808380,22.148849 260.461365,14.955869 
	C250.292816,7.886974 245.834015,9.627449 242.910767,21.519154 
	C242.593597,22.809347 242.324951,24.111393 242.016678,25.403856 
	C239.398926,36.378365 237.500702,47.591820 233.962875,58.261505 
	C230.054291,70.049309 224.338974,81.224884 219.969635,92.876755 
	C215.558273,104.640663 219.438705,112.956787 231.483521,116.406021 
	C249.552994,121.580536 261.849945,117.132713 259.159821,94.678658 
	C258.014923,85.122704 255.854126,75.688461 254.076797,65.298386 
M352.117340,102.352638 
	C352.245941,99.423279 351.658844,96.222160 352.647217,93.619263 
	C354.938293,87.585716 357.917145,81.805351 360.754089,75.989120 
	C364.101990,69.125381 367.920959,62.471817 370.918945,55.463318 
	C373.259857,49.990814 371.882660,46.249481 367.827179,43.629837 
	C363.721008,40.977444 358.876801,41.229622 355.099792,45.187809 
	C352.291992,48.130291 350.245087,51.828644 348.026306,55.297192 
	C343.314301,62.663300 339.257050,70.520821 333.935852,77.407684 
	C325.916870,87.786240 316.421661,97.067764 311.694489,109.701241 
	C306.818542,122.732269 311.319031,135.862762 323.304016,142.884933 
	C327.743744,145.486237 332.318268,147.914902 337.016846,150.005280 
	C347.623444,154.724121 357.811554,153.765808 366.014648,145.341644 
	C371.277405,139.937073 376.317841,133.786469 379.569458,127.057693 
	C387.582306,110.475975 394.559357,93.390732 401.809357,76.446541 
	C402.903168,73.890091 403.984863,70.920265 403.693756,68.294456 
	C403.403625,65.677193 401.958984,61.959179 399.970184,61.068123 
	C397.450592,59.939270 393.553802,60.449028 390.849396,61.626545 
	C388.723602,62.552124 387.244385,65.411133 385.933594,67.675087 
	C382.186859,74.146393 378.979218,80.947456 374.971924,87.244873 
	C371.602081,92.540451 367.754730,97.638260 363.457092,102.200310 
	C360.563202,105.272255 356.511932,107.170723 352.117340,102.352638 
M214.871811,98.930687 
	C214.911758,98.432716 214.973099,97.935410 214.988602,97.436676 
	C215.531860,79.964226 208.634674,73.050461 191.578491,73.965179 
	C183.940796,74.374794 178.259888,71.360672 175.978607,65.688370 
	C173.744049,60.132252 175.468094,56.550579 181.294861,55.256683 
	C184.858688,54.465290 188.550507,54.263180 192.133224,53.540459 
	C195.961334,52.768238 199.776337,51.743446 199.946548,46.697533 
	C200.097763,42.214500 197.331039,38.744827 192.081573,38.000717 
	C187.003403,37.280884 181.772400,37.628773 176.699966,36.884544 
	C174.872086,36.616360 173.309982,34.536556 171.626602,33.283485 
	C173.177628,32.113297 174.596268,30.220875 176.304398,29.907757 
	C181.519547,28.951767 186.906555,28.921461 192.112793,27.931812 
	C197.571823,26.894112 199.133347,22.026794 195.284775,17.976223 
	C193.312592,15.900521 190.526688,13.803875 187.839752,13.365972 
	C182.170532,12.442034 176.273117,11.980898 170.561752,12.451510 
	C159.286774,13.380565 151.827118,20.050390 148.387131,30.516075 
	C146.334549,36.760799 145.162735,43.454144 144.680130,50.025517 
	C143.315826,68.602135 146.192352,86.544983 154.892151,103.216217 
	C161.487534,115.854820 171.612350,120.960976 185.599884,119.221741 
	C188.406235,118.872803 191.215729,118.548691 194.024323,118.217865 
	C205.227554,116.898193 212.264328,110.897369 214.871811,98.930687 
z"/>
<path fill="#E9E6E8" opacity="1.000000" stroke="none" 
	d="
M87.033234,109.965263 
	C91.644669,116.030220 96.819206,121.414398 100.164299,127.762566 
	C104.641594,136.259384 102.230652,144.364304 94.193153,149.499023 
	C88.659279,153.034317 82.554565,156.067657 76.294601,157.986664 
	C65.872513,161.181549 58.250938,156.823288 54.930534,146.476959 
	C52.853016,140.003448 51.064377,133.393158 49.763069,126.723877 
	C47.138226,113.271416 40.326912,101.645187 34.627560,89.471169 
	C31.501560,82.793938 29.351267,75.488197 27.978836,68.235405 
	C27.309553,64.698502 28.590324,60.150330 30.459164,56.907516 
	C34.496990,49.901062 42.421734,48.233891 50.069241,52.803635 
	C55.879169,56.275341 61.041088,60.834316 66.472832,64.934036 
	C67.766327,65.910324 68.985909,66.984543 71.243408,68.837929 
	C70.586922,63.729950 69.845612,59.769810 69.631004,55.781330 
	C69.418320,51.828598 69.209053,47.750080 69.919304,43.896488 
	C72.183754,31.610363 85.505569,26.341089 95.786354,33.510311 
	C104.506088,39.590931 109.422607,48.670139 112.893112,58.164505 
	C117.756714,71.470016 125.362968,82.097160 137.011383,90.228653 
	C141.121170,93.097610 144.439392,97.400948 147.392120,101.564857 
	C153.694397,110.452301 152.562149,120.516533 143.590622,126.547272 
	C137.711136,130.499512 130.559235,133.111938 123.606537,134.769760 
	C115.534325,136.694550 109.462952,131.963623 106.545212,124.801010 
	C103.313248,116.867058 100.906479,108.497520 99.089684,100.111992 
	C96.873741,89.884232 95.662224,79.439705 93.975723,69.095543 
	C93.695778,67.378479 93.208801,65.695160 92.817497,63.996243 
	C92.308624,64.021729 91.799759,64.047218 91.290886,64.072701 
	C91.290886,65.982567 91.156242,67.903755 91.315552,69.800232 
	C91.842186,76.069450 92.977104,82.331665 92.953316,88.593048 
	C92.914307,98.860023 87.456375,102.400314 77.540405,99.289284 
	C76.955917,99.105911 76.312767,99.109528 74.483482,98.861816 
	C79.147202,102.977081 82.964439,106.345421 87.033234,109.965263 
M98.286591,39.200691 
	C93.276558,34.037457 87.562691,31.142582 80.389397,34.378929 
	C73.444008,37.512463 71.680504,43.633377 72.091782,50.545567 
	C72.377457,55.346607 73.410950,60.102348 73.716225,64.903389 
	C73.849884,67.005394 72.999771,69.169952 72.596382,71.306107 
	C70.698105,70.515167 68.548721,70.062096 66.947212,68.871849 
	C61.484489,64.811897 56.386284,60.247189 50.817101,56.349274 
	C46.335018,53.212227 41.408291,51.308697 36.043095,55.075768 
	C30.825134,58.739449 29.387693,63.951668 30.806828,69.580086 
	C32.497993,76.287399 34.380329,83.170441 37.597870,89.223610 
	C44.904083,102.968788 51.013851,117.025810 53.935925,132.391891 
	C54.771042,136.783478 55.997673,141.128693 57.397141,145.379150 
	C60.450287,154.652145 67.196663,158.292145 76.496338,155.141968 
	C81.791069,153.348404 86.960007,150.816986 91.704819,147.849182 
	C99.566513,142.931808 101.694481,135.788971 97.141571,127.670479 
	C93.942223,121.965576 89.823929,116.407349 84.962280,112.079659 
	C74.664200,102.912598 63.518768,94.703979 52.938957,85.841904 
	C50.526070,83.820763 46.019161,81.109222 49.234375,77.452095 
	C52.575474,73.651779 55.811810,77.690979 58.471138,79.937370 
	C64.564346,85.084404 70.138222,90.926483 76.602081,95.533516 
	C84.118828,100.890984 90.086014,97.670151 90.063576,88.447594 
	C90.045013,80.820831 88.876297,73.202148 88.396729,65.568611 
	C88.207100,62.550114 87.191956,58.530682 91.257874,57.736881 
	C92.342140,57.525196 95.226074,61.666538 95.716286,64.122261 
	C97.799927,74.560165 98.850227,85.213333 101.133942,95.599670 
	C103.261177,105.274330 105.761124,114.995262 109.429916,124.162369 
	C112.389000,131.556183 117.659187,133.726944 125.351265,131.766205 
	C130.887787,130.354904 136.476074,128.069717 141.242142,124.952522 
	C149.426895,119.599365 150.874054,110.626961 144.889618,102.813148 
	C140.992584,97.724808 136.326538,93.003723 131.258057,89.083931 
	C122.705002,82.469299 116.725868,74.456818 112.511566,64.438492 
	C108.879166,55.803482 103.430191,47.932636 98.286591,39.200691 
M61.815872,86.708687 
	C58.606922,83.907211 55.397972,81.105743 52.189018,78.304276 
	C51.662632,78.933708 51.136242,79.563141 50.609856,80.192574 
	C55.076645,83.965240 59.543438,87.737907 64.010231,91.510574 
	C64.389572,91.109138 64.768913,90.707710 65.148254,90.306274 
	C64.221039,89.260223 63.293827,88.214165 61.815872,86.708687 
M73.870163,98.996773 
	C74.161835,98.975029 74.453514,98.953285 74.745186,98.931541 
	C74.703598,98.688568 74.662018,98.445587 74.620430,98.202614 
	C74.199387,98.315880 73.778351,98.429153 73.870163,98.996773 
z"/>
<path fill="#1C1B6D" opacity="1.000000" stroke="none" 
	d="
M254.115906,65.748650 
	C255.854126,75.688461 258.014923,85.122704 259.159821,94.678658 
	C261.849945,117.132713 249.552994,121.580536 231.483521,116.406021 
	C219.438705,112.956787 215.558273,104.640663 219.969635,92.876755 
	C224.338974,81.224884 230.054291,70.049309 233.962875,58.261505 
	C237.500702,47.591820 239.398926,36.378365 242.016678,25.403856 
	C242.324951,24.111393 242.593597,22.809347 242.910767,21.519154 
	C245.834015,9.627449 250.292816,7.886974 260.461365,14.955869 
	C270.808380,22.148849 276.594269,32.872253 282.140289,43.732906 
	C283.424255,46.247227 284.526398,48.887470 286.098724,51.207867 
	C286.919373,52.418983 288.692902,53.885914 289.831726,53.731384 
	C291.017212,53.570522 292.522064,51.755329 292.907837,50.387299 
	C294.798462,43.682789 296.363983,36.886543 298.037567,30.121017 
	C298.117065,29.799593 298.113770,29.458559 298.177734,29.132277 
	C299.555939,22.097427 301.380981,20.305756 306.454590,20.999561 
	C311.783264,21.728241 313.575958,24.869814 312.840820,31.805967 
	C311.771362,41.897121 310.610840,51.984402 309.840485,62.100086 
	C308.741150,76.535759 307.978790,90.996902 307.018616,105.443581 
	C306.897980,107.259064 306.411621,109.047440 306.161011,110.857559 
	C305.166748,118.039955 302.595062,124.278259 294.896881,126.337578 
	C286.972931,128.457291 279.626953,126.491035 273.527222,121.114006 
	C268.142059,116.366875 268.089020,110.073105 269.689850,103.594330 
	C274.200104,85.340889 272.668335,67.586800 264.985474,50.445877 
	C263.576752,47.302963 262.429504,42.603725 257.731537,43.639137 
	C253.237900,44.629505 253.672699,49.300529 253.542160,52.833424 
	C253.389099,56.976170 253.870560,61.142361 254.115906,65.748650 
z"/>
<path fill="#1B1B6D" opacity="1.000000" stroke="none" 
	d="
M352.343689,102.674248 
	C356.511932,107.170723 360.563202,105.272255 363.457092,102.200310 
	C367.754730,97.638260 371.602081,92.540451 374.971924,87.244873 
	C378.979218,80.947456 382.186859,74.146393 385.933594,67.675087 
	C387.244385,65.411133 388.723602,62.552124 390.849396,61.626545 
	C393.553802,60.449028 397.450592,59.939270 399.970184,61.068123 
	C401.958984,61.959179 403.403625,65.677193 403.693756,68.294456 
	C403.984863,70.920265 402.903168,73.890091 401.809357,76.446541 
	C394.559357,93.390732 387.582306,110.475975 379.569458,127.057693 
	C376.317841,133.786469 371.277405,139.937073 366.014648,145.341644 
	C357.811554,153.765808 347.623444,154.724121 337.016846,150.005280 
	C332.318268,147.914902 327.743744,145.486237 323.304016,142.884933 
	C311.319031,135.862762 306.818542,122.732269 311.694489,109.701241 
	C316.421661,97.067764 325.916870,87.786240 333.935852,77.407684 
	C339.257050,70.520821 343.314301,62.663300 348.026306,55.297192 
	C350.245087,51.828644 352.291992,48.130291 355.099792,45.187809 
	C358.876801,41.229622 363.721008,40.977444 367.827179,43.629837 
	C371.882660,46.249481 373.259857,49.990814 370.918945,55.463318 
	C367.920959,62.471817 364.101990,69.125381 360.754089,75.989120 
	C357.917145,81.805351 354.938293,87.585716 352.647217,93.619263 
	C351.658844,96.222160 352.245941,99.423279 352.343689,102.674248 
z"/>
<path fill="#1C1B6D" opacity="1.000000" stroke="none" 
	d="
M214.809906,99.354652 
	C212.264328,110.897369 205.227554,116.898193 194.024323,118.217865 
	C191.215729,118.548691 188.406235,118.872803 185.599884,119.221741 
	C171.612350,120.960976 161.487534,115.854820 154.892151,103.216217 
	C146.192352,86.544983 143.315826,68.602135 144.680130,50.025517 
	C145.162735,43.454144 146.334549,36.760799 148.387131,30.516075 
	C151.827118,20.050390 159.286774,13.380565 170.561752,12.451510 
	C176.273117,11.980898 182.170532,12.442034 187.839752,13.365972 
	C190.526688,13.803875 193.312592,15.900521 195.284775,17.976223 
	C199.133347,22.026794 197.571823,26.894112 192.112793,27.931812 
	C186.906555,28.921461 181.519547,28.951767 176.304398,29.907757 
	C174.596268,30.220875 173.177628,32.113297 171.626602,33.283485 
	C173.309982,34.536556 174.872086,36.616360 176.699966,36.884544 
	C181.772400,37.628773 187.003403,37.280884 192.081573,38.000717 
	C197.331039,38.744827 200.097763,42.214500 199.946548,46.697533 
	C199.776337,51.743446 195.961334,52.768238 192.133224,53.540459 
	C188.550507,54.263180 184.858688,54.465290 181.294861,55.256683 
	C175.468094,56.550579 173.744049,60.132252 175.978607,65.688370 
	C178.259888,71.360672 183.940796,74.374794 191.578491,73.965179 
	C208.634674,73.050461 215.531860,79.964226 214.988602,97.436676 
	C214.973099,97.935410 214.911758,98.432716 214.809906,99.354652 
z"/>
<path fill="#1C1C6E" opacity="1.000000" stroke="none" 
	d="
M98.535469,39.462318 
	C103.430191,47.932636 108.879166,55.803482 112.511566,64.438492 
	C116.725868,74.456818 122.705002,82.469299 131.258057,89.083931 
	C136.326538,93.003723 140.992584,97.724808 144.889618,102.813148 
	C150.874054,110.626961 149.426895,119.599365 141.242142,124.952522 
	C136.476074,128.069717 130.887787,130.354904 125.351265,131.766205 
	C117.659187,133.726944 112.389000,131.556183 109.429916,124.162369 
	C105.761124,114.995262 103.261177,105.274330 101.133942,95.599670 
	C98.850227,85.213333 97.799927,74.560165 95.716286,64.122261 
	C95.226074,61.666538 92.342140,57.525196 91.257874,57.736881 
	C87.191956,58.530682 88.207100,62.550114 88.396729,65.568611 
	C88.876297,73.202148 90.045013,80.820831 90.063576,88.447594 
	C90.086014,97.670151 84.118828,100.890984 76.602081,95.533516 
	C70.138222,90.926483 64.564346,85.084404 58.471138,79.937370 
	C55.811810,77.690979 52.575474,73.651779 49.234375,77.452095 
	C46.019161,81.109222 50.526070,83.820763 52.938957,85.841904 
	C63.518768,94.703979 74.664200,102.912598 84.962280,112.079659 
	C89.823929,116.407349 93.942223,121.965576 97.141571,127.670479 
	C101.694481,135.788971 99.566513,142.931808 91.704819,147.849182 
	C86.960007,150.816986 81.791069,153.348404 76.496338,155.141968 
	C67.196663,158.292145 60.450287,154.652145 57.397141,145.379150 
	C55.997673,141.128693 54.771042,136.783478 53.935925,132.391891 
	C51.013851,117.025810 44.904083,102.968788 37.597870,89.223610 
	C34.380329,83.170441 32.497993,76.287399 30.806828,69.580086 
	C29.387693,63.951668 30.825134,58.739449 36.043095,55.075768 
	C41.408291,51.308697 46.335018,53.212227 50.817101,56.349274 
	C56.386284,60.247189 61.484489,64.811897 66.947212,68.871849 
	C68.548721,70.062096 70.698105,70.515167 72.596375,71.306107 
	C72.999771,69.169952 73.849884,67.005394 73.716225,64.903389 
	C73.410950,60.102348 72.377457,55.346607 72.091782,50.545567 
	C71.680504,43.633377 73.444008,37.512463 80.389397,34.378929 
	C87.562691,31.142582 93.276558,34.037457 98.535469,39.462318 
z"/>
<path fill="#3B3A80" opacity="1.000000" stroke="none" 
	d="
M62.091240,86.938400 
	C63.293827,88.214165 64.221039,89.260223 65.148254,90.306274 
	C64.768913,90.707710 64.389572,91.109138 64.010231,91.510574 
	C59.543438,87.737907 55.076645,83.965240 50.609856,80.192574 
	C51.136242,79.563141 51.662632,78.933708 52.189018,78.304276 
	C55.397972,81.105743 58.606922,83.907211 62.091240,86.938400 
z"/>
<path fill="#1A1A6D" opacity="1.000000" stroke="none" 
	d="
M73.613739,98.769592 
	C73.778351,98.429153 74.199387,98.315880 74.620430,98.202614 
	C74.662018,98.445587 74.703598,98.688568 74.745186,98.931541 
	C74.453514,98.953285 74.161835,98.975029 73.613739,98.769592 
z"/>
</svg>