<svg version="1.1" id="Layer_1" xmlns="http://www.w3.org/2000/svg" xmlns:xlink="http://www.w3.org/1999/xlink" x="0px" y="0px"
	 width="100%" viewBox="0 0 286 290" enable-background="new 0 0 286 290" xml:space="preserve">
<path fill="#1A1A6C" opacity="1.000000" stroke="none" 
	d="
M158.000000,291.000000 
	C105.333336,291.000000 53.166679,291.000000 1.000014,291.000000 
	C1.000009,194.333344 1.000009,97.666702 1.000005,1.000040 
	C96.333305,1.000027 191.666611,1.000027 286.999939,1.000013 
	C286.999939,97.666626 286.999939,194.333252 286.999969,290.999939 
	C244.166672,291.000000 201.333328,291.000000 158.000000,291.000000 
M275.873169,172.265610 
	C279.302917,155.466904 279.800568,138.645538 277.171814,121.638741 
	C265.717285,47.532211 194.209427,-4.195860 120.225677,8.270324 
	C46.367695,20.715319 -3.127673,88.075569 6.871627,162.538437 
	C17.476114,241.508011 96.254433,295.730377 173.453186,276.228973 
	C227.811478,262.497345 261.548065,227.227676 275.873169,172.265610 
z"/>
<path fill="#F5C646" opacity="1.000000" stroke="none" 
	d="
M275.787567,172.677429 
	C261.548065,227.227676 227.811478,262.497345 173.453186,276.228973 
	C96.254433,295.730377 17.476114,241.508011 6.871627,162.538437 
	C-3.127673,88.075569 46.367695,20.715319 120.225677,8.270324 
	C194.209427,-4.195860 265.717285,47.532211 277.171814,121.638741 
	C279.800568,138.645538 279.302917,155.466904 275.787567,172.677429 
M144.278915,143.695740 
	C143.870102,142.639343 143.337830,141.613022 143.072037,140.521790 
	C140.972580,131.902542 137.075699,129.234726 128.163345,129.756241 
	C125.810448,129.893906 122.881111,129.464798 121.140648,128.109299 
	C119.481804,126.817360 118.507095,124.022392 118.313232,121.794106 
	C118.239922,120.951416 121.089005,119.557701 122.795769,118.937286 
	C124.640373,118.266762 127.016571,118.715584 128.599030,117.752739 
	C130.634384,116.514320 133.372696,114.433167 133.484879,112.574776 
	C133.605331,110.579971 131.438324,107.824097 129.512054,106.514282 
	C127.789833,105.343208 125.040947,105.648499 122.736252,105.377190 
	C120.552109,105.120071 118.356522,104.960106 116.165970,104.757408 
	C116.126404,104.126862 116.086838,103.496315 116.047279,102.865768 
	C119.383629,102.365540 122.847984,102.259056 126.012489,101.230240 
	C128.216949,100.513542 131.701920,98.419083 131.616852,97.139404 
	C131.463654,94.835030 129.568253,91.822784 127.512962,90.607552 
	C117.241875,84.534515 102.529778,89.934593 99.151352,101.290634 
	C94.004555,118.590843 95.704918,135.576828 103.953331,151.642273 
	C108.197670,159.908966 115.184769,162.597672 124.313423,161.878067 
	C133.407669,161.161179 140.125656,157.597290 143.901642,149.906143 
	C144.180359,157.313721 153.866867,161.835815 162.523636,160.959976 
	C168.834824,160.321457 172.111191,155.675415 172.005554,147.432495 
	C171.978012,145.282700 171.641190,143.129837 171.348694,140.991730 
	C170.289719,133.250610 169.047104,125.530685 168.200195,117.767159 
	C167.977295,115.723747 168.929810,113.552109 169.342560,111.439346 
	C169.956635,111.346367 170.570709,111.253380 171.184799,111.160393 
	C172.437485,113.337608 174.015121,115.392654 174.887466,117.712875 
	C178.990433,128.625656 179.296967,139.775543 176.762207,151.120575 
	C175.102081,158.550964 178.395447,163.729462 185.568634,166.113571 
	C192.373917,168.375397 197.482071,166.140091 201.608063,159.811722 
	C202.862808,170.521744 208.823853,176.496109 217.501480,180.647812 
	C228.686600,185.999222 236.610504,184.867874 243.690903,174.910950 
	C253.630432,160.933334 257.879425,144.238831 264.302521,128.599930 
	C265.612579,125.410240 264.512207,121.624138 260.831757,121.010902 
	C258.448273,120.613770 255.337540,122.220337 253.153854,123.774025 
	C251.567627,124.902634 251.011703,127.441559 249.916046,129.304382 
	C246.545410,135.035095 243.453903,140.972702 239.575424,146.339554 
	C238.153198,148.307541 234.831558,148.902863 232.376358,150.124359 
	C232.339249,147.495789 231.481308,144.521042 232.416840,142.302643 
	C235.385635,135.262772 239.154007,128.565369 242.364349,121.620506 
	C245.286118,115.299904 244.507294,111.443520 240.355865,109.430328 
	C236.129532,107.380814 231.833725,109.467049 228.662354,115.116096 
	C228.336548,115.696442 228.086823,116.323013 227.728439,116.881027 
	C223.532120,123.414520 219.295013,129.921967 215.123032,136.470917 
	C211.391449,142.328568 207.727585,148.229324 203.525177,154.278763 
	C203.348114,154.301559 203.171051,154.324356 202.437439,153.779495 
	C202.790527,148.675751 203.128082,143.570877 203.499786,138.468491 
	C204.393616,126.199402 205.363220,113.935463 206.178345,101.661217 
	C206.519440,96.524918 203.151169,93.198540 199.104996,95.072571 
	C197.221146,95.945099 195.887421,98.934380 195.183197,101.233376 
	C193.670212,106.172585 192.727325,111.286423 191.551041,116.328773 
	C191.000671,116.341148 190.450302,116.353523 189.899933,116.365891 
	C188.894287,114.569901 187.995148,112.703568 186.863876,110.990540 
	C182.765686,104.784927 179.305740,97.955795 174.273621,92.616737 
	C166.880508,84.772690 161.765320,86.608871 159.386246,96.939400 
	C159.237152,97.586830 159.081802,98.236725 158.995544,98.894150 
	C157.337753,111.530136 153.467896,123.492821 148.182571,135.052841 
	C146.881622,137.898239 146.028992,140.948639 144.278915,143.695740 
M52.552074,148.946701 
	C47.205280,144.041443 40.362022,140.591965 37.146072,133.519653 
	C39.784698,134.128403 41.716022,135.504745 43.489559,137.060944 
	C46.737381,139.910751 49.624416,143.253845 53.147213,145.689224 
	C58.651794,149.494629 63.017365,147.214264 63.193710,140.566147 
	C63.307831,136.263626 62.650322,131.944153 62.428230,127.627670 
	C62.317768,125.480759 62.409016,123.323471 62.409016,121.170876 
	C63.099369,121.096794 63.789722,121.022720 64.480080,120.948639 
	C65.309174,125.363968 66.090622,129.788879 66.977310,134.192612 
	C68.811295,143.301086 70.079720,152.585068 72.742989,161.447617 
	C75.408287,170.316925 80.904610,172.268097 89.520424,168.819336 
	C91.363770,168.081467 93.164841,167.153076 94.832077,166.075302 
	C101.076019,162.039032 102.578926,155.281265 98.212021,149.290985 
	C95.887192,146.101929 93.076767,143.120575 89.993851,140.662018 
	C84.235306,136.069702 79.949051,130.682068 77.475143,123.644745 
	C75.944077,119.289452 73.717667,115.113754 71.315956,111.153008 
	C69.805832,108.662613 67.701561,106.278191 65.324669,104.618309 
	C59.594135,100.616417 52.411407,103.166695 50.752632,109.950378 
	C49.914066,113.379738 50.481678,117.168999 50.532001,120.793884 
	C50.564140,123.109032 50.813095,125.421173 51.046307,128.976639 
	C46.304661,125.088806 42.855190,121.990532 39.123615,119.280724 
	C35.744820,116.827087 32.072880,114.400688 27.706701,117.242073 
	C23.300585,120.109451 22.581686,124.407532 23.688650,129.128128 
	C24.406666,132.190063 25.015615,135.429169 26.502405,138.133072 
	C32.979916,149.913055 37.271317,162.415771 39.835247,175.566360 
	C40.120125,177.027496 40.554260,178.487396 41.131336,179.858582 
	C43.025192,184.358658 46.424385,186.957932 51.323448,185.965027 
	C54.829205,185.254486 58.292141,183.793091 61.466850,182.092850 
	C69.989189,177.528625 71.788345,170.976349 66.060669,163.126938 
	C62.378738,158.081116 57.475872,153.926208 52.552074,148.946701 
z"/>
<path fill="#FBF6F1" opacity="1.000000" stroke="none" 
	d="
M204.033844,154.111069 
	C207.727585,148.229324 211.391449,142.328568 215.123032,136.470917 
	C219.295013,129.921967 223.532120,123.414520 227.728439,116.881027 
	C228.086823,116.323013 228.336548,115.696442 228.662354,115.116096 
	C231.833725,109.467049 236.129532,107.380814 240.355865,109.430328 
	C244.507294,111.443520 245.286118,115.299904 242.364349,121.620506 
	C239.154007,128.565369 235.385635,135.262772 232.416840,142.302643 
	C231.481308,144.521042 232.339249,147.495789 232.376358,150.124359 
	C234.831558,148.902863 238.153198,148.307541 239.575424,146.339554 
	C243.453903,140.972702 246.545410,135.035095 249.916046,129.304382 
	C251.011703,127.441559 251.567627,124.902634 253.153854,123.774025 
	C255.337540,122.220337 258.448273,120.613770 260.831757,121.010902 
	C264.512207,121.624138 265.612579,125.410240 264.302521,128.599930 
	C257.879425,144.238831 253.630432,160.933334 243.690903,174.910950 
	C236.610504,184.867874 228.686600,185.999222 217.501480,180.647812 
	C208.823853,176.496109 202.862808,170.521744 201.608063,159.811722 
	C197.482071,166.140091 192.373917,168.375397 185.568634,166.113571 
	C178.395447,163.729462 175.102081,158.550964 176.762207,151.120575 
	C179.296967,139.775543 178.990433,128.625656 174.887466,117.712875 
	C174.015121,115.392654 172.437485,113.337608 171.184799,111.160393 
	C170.570709,111.253380 169.956635,111.346367 169.342560,111.439346 
	C168.929810,113.552109 167.977295,115.723747 168.200195,117.767159 
	C169.047104,125.530685 170.289719,133.250610 171.348694,140.991730 
	C171.641190,143.129837 171.978012,145.282700 172.005554,147.432495 
	C172.111191,155.675415 168.834824,160.321457 162.523636,160.959976 
	C153.866867,161.835815 144.180359,157.313721 143.962860,149.146881 
	C144.339478,146.893341 144.654877,145.399078 144.970276,143.904800 
	C146.028992,140.948639 146.881622,137.898239 148.182571,135.052841 
	C153.467896,123.492821 157.337753,111.530136 158.995544,98.894150 
	C159.081802,98.236725 159.237152,97.586830 159.386246,96.939400 
	C161.765320,86.608871 166.880508,84.772690 174.273621,92.616737 
	C179.305740,97.955795 182.765686,104.784927 186.863876,110.990540 
	C187.995148,112.703568 188.894287,114.569901 189.899933,116.365891 
	C190.450302,116.353523 191.000671,116.341148 191.551041,116.328773 
	C192.727325,111.286423 193.670212,106.172585 195.183197,101.233376 
	C195.887421,98.934380 197.221146,95.945099 199.104996,95.072571 
	C203.151169,93.198540 206.519440,96.524918 206.178345,101.661217 
	C205.363220,113.935463 204.393616,126.199402 203.499786,138.468491 
	C203.128082,143.570877 202.790527,148.675751 202.707184,154.329178 
	C202.961151,155.233139 202.945358,155.587433 202.693604,156.036942 
	C202.112274,156.616211 201.766922,157.100250 201.421570,157.584290 
	C201.650620,157.719162 201.879654,157.854034 202.108704,157.988907 
	C202.430740,157.353104 202.752777,156.717300 203.241119,155.860199 
	C203.616241,155.129608 203.825043,154.620346 204.033844,154.111069 
z"/>
<path fill="#FBF7F1" opacity="1.000000" stroke="none" 
	d="
M52.836166,149.159332 
	C57.475872,153.926208 62.378738,158.081116 66.060669,163.126938 
	C71.788345,170.976349 69.989189,177.528625 61.466850,182.092850 
	C58.292141,183.793091 54.829205,185.254486 51.323448,185.965027 
	C46.424385,186.957932 43.025192,184.358658 41.131336,179.858582 
	C40.554260,178.487396 40.120125,177.027496 39.835247,175.566360 
	C37.271317,162.415771 32.979916,149.913055 26.502405,138.133072 
	C25.015615,135.429169 24.406666,132.190063 23.688650,129.128128 
	C22.581686,124.407532 23.300585,120.109451 27.706701,117.242073 
	C32.072880,114.400688 35.744820,116.827087 39.123615,119.280724 
	C42.855190,121.990532 46.304661,125.088806 51.046307,128.976639 
	C50.813095,125.421173 50.564140,123.109032 50.532001,120.793884 
	C50.481678,117.168999 49.914066,113.379738 50.752632,109.950378 
	C52.411407,103.166695 59.594135,100.616417 65.324669,104.618309 
	C67.701561,106.278191 69.805832,108.662613 71.315956,111.153008 
	C73.717667,115.113754 75.944077,119.289452 77.475143,123.644745 
	C79.949051,130.682068 84.235306,136.069702 89.993851,140.662018 
	C93.076767,143.120575 95.887192,146.101929 98.212021,149.290985 
	C102.578926,155.281265 101.076019,162.039032 94.832077,166.075302 
	C93.164841,167.153076 91.363770,168.081467 89.520424,168.819336 
	C80.904610,172.268097 75.408287,170.316925 72.742989,161.447617 
	C70.079720,152.585068 68.811295,143.301086 66.977310,134.192612 
	C66.090622,129.788879 65.309174,125.363968 64.480080,120.948639 
	C63.789722,121.022720 63.099369,121.096794 62.409016,121.170876 
	C62.409016,123.323471 62.317768,125.480759 62.428230,127.627670 
	C62.650322,131.944153 63.307831,136.263626 63.193710,140.566147 
	C63.017365,147.214264 58.651794,149.494629 53.147213,145.689224 
	C49.624416,143.253845 46.737381,139.910751 43.489559,137.060944 
	C41.716022,135.504745 39.784698,134.128403 37.146072,133.519653 
	C40.362022,140.591965 47.205280,144.041443 52.836166,149.159332 
z"/>
<path fill="#FBF6F1" opacity="1.000000" stroke="none" 
	d="
M144.624603,143.800262 
	C144.654877,145.399078 144.339478,146.893341 143.988464,148.769745 
	C140.125656,157.597290 133.407669,161.161179 124.313423,161.878067 
	C115.184769,162.597672 108.197670,159.908966 103.953331,151.642273 
	C95.704918,135.576828 94.004555,118.590843 99.151352,101.290634 
	C102.529778,89.934593 117.241875,84.534515 127.512962,90.607552 
	C129.568253,91.822784 131.463654,94.835030 131.616852,97.139404 
	C131.701920,98.419083 128.216949,100.513542 126.012489,101.230240 
	C122.847984,102.259056 119.383629,102.365540 116.047279,102.865768 
	C116.086838,103.496315 116.126404,104.126862 116.165970,104.757408 
	C118.356522,104.960106 120.552109,105.120071 122.736252,105.377190 
	C125.040947,105.648499 127.789833,105.343208 129.512054,106.514282 
	C131.438324,107.824097 133.605331,110.579971 133.484879,112.574776 
	C133.372696,114.433167 130.634384,116.514320 128.599030,117.752739 
	C127.016571,118.715584 124.640373,118.266762 122.795769,118.937286 
	C121.089005,119.557701 118.239922,120.951416 118.313232,121.794106 
	C118.507095,124.022392 119.481804,126.817360 121.140648,128.109299 
	C122.881111,129.464798 125.810448,129.893906 128.163345,129.756241 
	C137.075699,129.234726 140.972580,131.902542 143.072037,140.521790 
	C143.337830,141.613022 143.870102,142.639343 144.624603,143.800262 
z"/>
<path fill="#FBF6F1" opacity="1.000000" stroke="none" 
	d="
M203.779510,154.194916 
	C203.825043,154.620346 203.616241,155.129608 203.205612,155.824402 
	C203.003784,156.009933 202.929581,155.941711 202.929565,155.941711 
	C202.945358,155.587433 202.961151,155.233139 202.985474,154.613007 
	C203.171051,154.324356 203.348114,154.301559 203.779510,154.194916 
z"/>
<path fill="#FBF6F1" opacity="1.000000" stroke="none" 
	d="
M203.039307,156.045715 
	C202.752777,156.717300 202.430740,157.353104 202.108704,157.988907 
	C201.879654,157.854034 201.650620,157.719162 201.421570,157.584290 
	C201.766922,157.100250 202.112274,156.616211 202.693604,156.036942 
	C202.929581,155.941711 203.003784,156.009933 203.039307,156.045715 
z"/>
</svg>